<svg width="94" height="50" viewBox="0 0 94 50" fill="none" xmlns="http://www.w3.org/2000/svg">
<g opacity="0.25" clip-path="url(#clip0_5_155)">
<mask id="mask0_5_155" style="mask-type:luminance" maskUnits="userSpaceOnUse" x="0" y="0" width="94" height="50">
<path d="M94 0H0V50H94V0Z" fill="white"/>
</mask>
<g mask="url(#mask0_5_155)">
<path d="M0 50H94V0L0 25.0845V50Z" fill="white"/>
</g>
<mask id="mask1_5_155" style="mask-type:luminance" maskUnits="userSpaceOnUse" x="0" y="0" width="94" height="50">
<path d="M94 0H0V50H94V0Z" fill="white"/>
</mask>
<g mask="url(#mask1_5_155)">
<path d="M13.5495 33.5304C13.2955 33.5304 13.0414 33.5304 12.7874 33.4459C12.5333 33.3614 12.364 33.277 12.1099 33.1081L12.4486 30.4054C12.1946 30.3209 12.0252 30.2364 11.7712 30.2364C11.3477 30.2364 11.009 30.3209 10.6703 30.4898C10.3315 30.6587 10.0775 30.9966 9.82342 31.3344C9.56936 31.7567 9.39999 32.179 9.31531 32.6013C9.14594 33.1925 9.14594 33.6993 9.14594 34.2905C9.14594 34.7973 9.14594 35.304 9.31531 35.8108C9.48468 36.3175 9.65405 36.8243 9.9081 37.2466C9.99278 37.4155 10.1622 37.5844 10.3315 37.6689C10.5009 37.8378 10.6703 37.9223 10.8396 38.0067C11.009 38.0912 11.1784 38.1756 11.4324 38.2601C11.6018 38.3445 11.8558 38.3446 12.0252 38.3446C12.2793 38.3446 12.5333 38.3445 12.8721 38.2601C13.1261 38.1756 13.3802 38.0912 13.6342 37.9223C14.1423 37.5844 14.5658 37.1621 14.8198 36.6554L15.4126 37.0777C15.2432 37.5 14.9892 37.8378 14.7351 38.1756C14.3964 38.5135 14.0576 38.8513 13.7189 39.1047C13.2955 39.3581 12.9567 39.6114 12.4486 39.6959C12.0252 39.8648 11.5171 39.9493 11.0937 39.9493C10.4162 39.9493 9.65405 39.8648 8.97657 39.6114C8.38378 39.3581 7.87567 39.0202 7.36756 38.5979C6.94414 38.0912 6.6054 37.5844 6.35134 36.9087C6.09729 36.2331 6.0126 35.4729 6.0126 34.7128C6.0126 33.9527 6.09729 33.277 6.43603 32.6013C6.69008 31.9256 7.1135 31.4189 7.53693 30.9121C8.04504 30.4054 8.63783 30.0675 9.23062 29.8141C9.9081 29.5608 10.6703 29.3918 11.4324 29.3918C11.9405 29.3918 12.364 29.4763 12.8721 29.5608C13.2955 29.7297 13.7189 29.8986 14.0576 30.152C14.3964 30.4054 14.6504 30.6587 14.8198 30.9966C14.9892 31.3344 15.0739 31.6723 15.0739 32.0945C15.0739 32.2635 15.0739 32.5168 14.9892 32.6858C14.9045 32.8547 14.8198 33.0236 14.6504 33.1925C14.4811 33.3614 14.3117 33.4459 14.1423 33.5304C13.973 33.5304 13.8036 33.5304 13.5495 33.5304Z" fill="black"/>
</g>
<mask id="mask2_5_155" style="mask-type:luminance" maskUnits="userSpaceOnUse" x="0" y="0" width="94" height="50">
<path d="M94 0H0V50H94V0Z" fill="white"/>
</mask>
<g mask="url(#mask2_5_155)">
<path d="M19.5622 39.8648C19.3928 39.8648 19.2234 39.8648 18.9694 39.8648C18.8 39.8648 18.6306 39.7804 18.4613 39.6959C18.2919 39.6115 18.1225 39.527 17.9531 39.4425C17.7838 39.3581 17.6144 39.2736 17.5297 39.1047C17.3604 39.0202 17.2757 38.8513 17.191 38.6824C17.1063 38.5135 17.0216 38.3446 16.9369 38.1756C16.8522 38.0067 16.8522 37.8378 16.7676 37.6689C16.7676 37.5 16.6829 37.331 16.7676 37.1621C16.7676 36.9088 16.7676 36.6554 16.8522 36.402C16.9369 36.1486 17.0216 35.8952 17.191 35.6419C17.3603 35.3885 17.5297 35.2196 17.6991 35.0506C17.8685 34.8817 18.1225 34.7128 18.3766 34.6283C18.9694 34.375 19.6468 34.1216 20.3243 34.0371C21.1712 33.8682 21.9333 33.8682 22.7802 33.7838V32.6013C22.7802 32.2635 22.7802 31.9256 22.6955 31.5878C22.6108 31.25 22.5261 30.9966 22.3567 30.6587C22.2721 30.5743 22.1874 30.4898 22.1027 30.4054C22.018 30.3209 21.9333 30.2365 21.764 30.152C21.6793 30.0675 21.5099 30.0675 21.4252 29.9831C21.3405 29.9831 21.1712 29.9831 21.0018 29.9831C20.6631 29.9831 20.2396 30.0675 19.9009 30.152L20.1549 32.6013C19.9856 32.7702 19.7315 32.8547 19.4775 32.9392C19.2234 33.0236 18.9694 33.0236 18.7153 33.0236C18.5459 33.0236 18.2919 33.0236 18.1225 32.9392C17.9531 32.8547 17.7838 32.7702 17.6144 32.6858C17.445 32.6013 17.3604 32.4324 17.2757 32.2635C17.191 32.0946 17.191 31.9256 17.191 31.7567C17.191 31.5878 17.191 31.4189 17.2757 31.25C17.3604 31.081 17.445 30.9121 17.5297 30.7432C17.7838 30.4054 18.1225 30.152 18.4613 29.8986C18.8847 29.6452 19.3928 29.4763 19.8162 29.3074C20.3243 29.1385 20.9171 29.054 21.4252 29.1385C21.6793 29.1385 21.9333 29.1385 22.2721 29.1385C22.5261 29.1385 22.7802 29.2229 23.0342 29.3074C23.2883 29.3919 23.5423 29.4763 23.7964 29.6452C24.0504 29.8142 24.2198 29.8986 24.4739 30.152C24.6432 30.3209 24.8126 30.5743 24.8973 30.7432C25.0667 30.9966 25.1513 31.1655 25.236 31.4189C25.3207 31.6723 25.4054 31.9256 25.4054 32.179C25.4054 32.4324 25.4054 32.6858 25.4054 32.9392C25.4054 33.3615 25.4054 33.7838 25.4054 34.1216C25.4054 34.4594 25.4054 34.7973 25.4054 35.1351C25.4054 35.4729 25.4054 35.8108 25.4054 36.1486C25.4054 36.4865 25.4054 36.8243 25.4054 37.1621C25.4054 38.0067 25.6594 38.429 26.1676 38.429C26.3369 38.429 26.5063 38.3446 26.6757 38.2601C26.845 38.0912 27.0144 37.9223 27.0991 37.7533L27.6919 38.1756C27.5225 38.429 27.3531 38.6824 27.1838 38.8513C27.0144 39.0202 26.7603 39.1892 26.5063 39.3581C26.3369 39.527 26.0829 39.6115 25.8288 39.6959C25.5748 39.7804 25.3207 39.7804 25.0667 39.7804C24.8126 39.7804 24.4739 39.7804 24.2198 39.6115C23.9658 39.527 23.7117 39.3581 23.4576 39.1892C23.2036 39.0202 23.0342 38.7669 22.9495 38.5135C22.7802 38.2601 22.6955 38.0067 22.6955 37.6689C22.6108 38.0067 22.4414 38.2601 22.1874 38.5135C21.9333 38.7669 21.764 39.0202 21.4252 39.1892C21.1712 39.3581 20.8324 39.527 20.4937 39.6115C20.2396 39.8648 19.9009 39.8648 19.5622 39.8648ZM19.5622 36.9932C19.5622 37.1621 19.5622 37.331 19.6468 37.5844C19.7315 37.8378 19.8162 37.9223 19.9009 38.0912C19.9856 38.1756 20.1549 38.3446 20.2396 38.3446C20.3243 38.3446 20.5784 38.429 20.6631 38.429C20.8324 38.429 20.9171 38.429 21.0865 38.3446C21.1712 38.3446 21.3405 38.2601 21.4252 38.1756C21.5099 38.0912 21.6793 38.0067 21.764 37.9223C21.8486 37.8378 21.9333 37.7533 22.018 37.5844C22.1874 37.2466 22.3567 36.9087 22.4414 36.5709C22.5261 36.2331 22.6108 35.8108 22.6108 35.4729V34.6283C22.1874 34.6283 21.764 34.6283 21.4252 34.7128C21.0018 34.7973 20.6631 34.9662 20.3243 35.1351C20.2396 35.2196 20.0703 35.3885 19.9856 35.4729C19.9009 35.6419 19.8162 35.7263 19.7315 35.8952C19.6468 36.0642 19.6468 36.2331 19.5622 36.402C19.5622 36.6554 19.5622 36.8243 19.5622 36.9932Z" fill="black"/>
</g>
<mask id="mask3_5_155" style="mask-type:luminance" maskUnits="userSpaceOnUse" x="0" y="0" width="94" height="50">
<path d="M94 0H0V50H94V0Z" fill="white"/>
</mask>
<g mask="url(#mask3_5_155)">
<path d="M29.555 44.679V31.5878C29.555 31.5033 29.555 31.3344 29.4703 31.2499C29.3856 31.1655 29.3009 31.1655 29.1315 31.1655L27.946 31.081V30.3209L31.9261 29.3074L32.1802 29.3918L32.0108 32.5168C32.0108 32.2635 32.0955 32.0945 32.1802 31.8412C32.2649 31.5878 32.3496 31.4189 32.4342 31.2499C32.5189 31.081 32.6883 30.8276 32.773 30.6587C32.9424 30.4898 33.027 30.3209 33.1964 30.152C33.3658 29.983 33.5351 29.8986 33.7045 29.8141C33.8739 29.7297 34.1279 29.6452 34.2973 29.5608C34.4667 29.4763 34.7207 29.4763 34.8901 29.3918C35.1442 29.3918 35.3135 29.3074 35.5676 29.3918C36.1604 29.3918 36.7532 29.4763 37.2613 29.8141C37.7694 30.0675 38.1928 30.4898 38.5315 30.9121C38.955 31.4189 39.209 32.0101 39.3784 32.6013C39.5478 33.3614 39.6324 34.0371 39.6324 34.7972C39.6324 35.4729 39.5478 36.1486 39.2937 36.8243C39.1243 37.4155 38.8703 38.0067 38.4469 38.5135C38.0234 39.0202 37.6 39.358 37.0072 39.6114C36.4144 39.8648 35.8216 40.0337 35.2288 40.0337C35.0595 40.0337 34.8901 40.0337 34.7207 40.0337C34.5514 40.0337 34.382 40.0337 34.2126 39.9493C34.0433 39.9493 33.8739 39.8648 33.7892 39.7803C33.6198 39.6959 33.5351 39.6114 33.3658 39.527C33.1964 39.4425 33.1117 39.358 32.9424 39.2736C32.8577 39.1891 32.6883 39.0202 32.6036 38.9357C32.5189 38.8513 32.4342 38.6824 32.3496 38.5135C32.2649 38.3445 32.1802 38.2601 32.0955 38.0912V44.0878L29.555 44.679ZM32.2649 34.6283C32.2649 35.1351 32.2649 35.5574 32.3496 35.9797C32.4342 36.402 32.5189 36.8243 32.6883 37.2466C32.8577 37.5844 33.027 37.9222 33.3658 38.1756C33.5351 38.2601 33.7045 38.3445 33.8739 38.429C34.0433 38.5135 34.2126 38.5135 34.4667 38.5135C34.636 38.5135 34.8054 38.5135 34.9748 38.429C35.1442 38.3445 35.3135 38.3445 35.3982 38.1756C35.5676 38.0912 35.6523 38.0067 35.7369 37.8378C35.8216 37.6689 35.9063 37.5844 35.991 37.4155C36.1604 36.9932 36.3297 36.4864 36.4144 35.9797C36.4991 35.4729 36.4991 34.9662 36.4991 34.5439C36.4991 34.0371 36.4991 33.6148 36.4144 33.108C36.3297 32.6013 36.1604 32.179 35.991 31.7567C35.9063 31.5878 35.8216 31.5033 35.7369 31.3344C35.6523 31.2499 35.5676 31.081 35.3982 30.9966C35.2288 30.9121 35.1442 30.8276 34.9748 30.7432C34.8054 30.6587 34.636 30.6587 34.4667 30.6587C34.1279 30.6587 33.8739 30.7432 33.6198 30.9121C33.3658 31.081 33.1117 31.4189 32.9424 31.6722C32.6883 32.0945 32.5189 32.4324 32.4342 32.8547C32.3496 33.5303 32.3496 34.0371 32.2649 34.6283Z" fill="black"/>
</g>
<mask id="mask4_5_155" style="mask-type:luminance" maskUnits="userSpaceOnUse" x="0" y="0" width="94" height="50">
<path d="M94 0H0V50H94V0Z" fill="white"/>
</mask>
<g mask="url(#mask4_5_155)">
<path d="M45.1369 30.5743V36.4865C45.1369 36.9932 45.2216 37.4155 45.391 37.9223C45.4757 38.0068 45.4757 38.0912 45.5604 38.0912C45.645 38.1757 45.7297 38.1757 45.7297 38.2601C45.8144 38.2601 45.8991 38.3446 45.9838 38.3446C46.0685 38.3446 46.1531 38.3446 46.2378 38.3446C46.7459 38.3446 47.254 37.9223 47.5928 37.1622L48.2703 37.5845C48.1009 37.9223 47.9315 38.2601 47.6775 38.5135C47.4234 38.7669 47.1694 39.0203 46.9153 39.2736C46.6613 39.4426 46.3225 39.6115 45.9838 39.6959C45.645 39.7804 45.3063 39.8649 44.9676 39.8649C44.7982 39.8649 44.5441 39.8649 44.3748 39.8649C44.2054 39.8649 44.036 39.7804 43.782 39.6959C43.6126 39.6115 43.4432 39.527 43.2739 39.4426C43.1045 39.3581 42.9351 39.1892 42.8504 39.1047C42.6811 38.9358 42.5964 38.7669 42.5117 38.598C42.427 38.4291 42.3423 38.2601 42.2577 38.0068C42.173 37.8378 42.173 37.5845 42.173 37.4155C42.173 37.2466 42.173 36.9932 42.173 36.8243V30.7432H40.2252V29.5608H42.2577V26.4358L44.7982 25.7601L45.0522 25.8446V29.5608H48.0162L47.9315 30.5743H45.1369Z" fill="black"/>
</g>
<mask id="mask5_5_155" style="mask-type:luminance" maskUnits="userSpaceOnUse" x="0" y="0" width="94" height="50">
<path d="M94 0H0V50H94V0Z" fill="white"/>
</mask>
<g mask="url(#mask5_5_155)">
<path d="M52.6739 39.8648C52.5045 39.8648 52.3351 39.8648 52.0811 39.8648C51.9117 39.8648 51.7423 39.7804 51.573 39.6959C51.4036 39.6115 51.2342 39.527 51.0649 39.4425C50.8955 39.3581 50.7261 39.2736 50.6414 39.1047C50.4721 39.0202 50.3874 38.8513 50.3027 38.6824C50.218 38.5135 50.1333 38.3446 50.0486 38.1756C49.964 38.0067 49.964 37.8378 49.8793 37.6689C49.8793 37.5 49.7946 37.331 49.8793 37.1621C49.8793 36.9088 49.8793 36.6554 49.964 36.402C50.0487 36.1486 50.1333 35.8952 50.3027 35.6419C50.4721 35.3885 50.6414 35.2196 50.8108 35.0506C50.9802 34.8817 51.2342 34.7128 51.4883 34.6283C52.0811 34.375 52.6739 34.1216 53.3514 34.0371C54.1982 33.8682 54.9604 33.8682 55.8072 33.7838V32.6013C55.8072 32.2635 55.8072 31.9256 55.7225 31.5878C55.6378 31.25 55.5532 30.9966 55.3838 30.6587C55.2991 30.5743 55.2144 30.4898 55.1297 30.4054C55.045 30.3209 54.9604 30.2365 54.791 30.152C54.7063 30.0675 54.5369 30.0675 54.4523 29.9831C54.3676 29.9831 54.1982 29.9831 54.0288 29.9831C53.6901 29.9831 53.2667 30.0675 52.9279 30.152L53.182 32.6013C53.0126 32.7702 52.7586 32.8547 52.5045 32.9392C52.2505 33.0236 51.9117 33.0236 51.6577 33.0236C51.4883 33.0236 51.2342 33.0236 51.0649 32.9392C50.8955 32.8547 50.7261 32.7702 50.5568 32.6858C50.3874 32.6013 50.3027 32.4324 50.218 32.2635C50.1333 32.0946 50.1333 31.9256 50.1333 31.7567C50.1333 31.5878 50.1333 31.4189 50.218 31.25C50.3027 31.081 50.3874 30.9121 50.4721 30.7432C50.7261 30.4054 51.0649 30.152 51.4036 29.8986C51.827 29.6452 52.3351 29.4763 52.7586 29.3074C53.3514 29.1385 53.8595 29.054 54.4523 29.1385C54.7063 29.1385 54.9604 29.1385 55.2991 29.1385C55.5532 29.1385 55.8072 29.2229 56.0613 29.3074C56.3153 29.3919 56.5694 29.4763 56.8234 29.6452C57.0775 29.8142 57.3315 29.8986 57.5009 30.152C57.6703 30.3209 57.8396 30.5743 57.9243 30.7432C58.0937 30.9966 58.1784 31.1655 58.2631 31.4189C58.3478 31.6723 58.4324 31.9256 58.4324 32.179C58.4324 32.4324 58.4324 32.6858 58.4324 32.9392C58.4324 33.3615 58.4324 33.7838 58.4324 34.1216C58.4324 34.4594 58.4324 34.7973 58.4324 35.1351C58.4324 35.4729 58.4324 35.8108 58.4324 36.1486C58.4324 36.4865 58.4324 36.8243 58.4324 37.1621C58.4324 38.0067 58.6865 38.429 59.1946 38.429C59.364 38.429 59.5333 38.3446 59.7027 38.2601C59.8721 38.0912 60.0414 37.9223 60.1261 37.7533L60.7189 38.1756C60.5495 38.429 60.3802 38.6824 60.2108 38.8513C60.0414 39.0202 59.7874 39.1892 59.5333 39.3581C59.364 39.527 59.1099 39.6115 58.8559 39.6959C58.6018 39.7804 58.3477 39.7804 58.0937 39.7804C57.8396 39.7804 57.5009 39.7804 57.2468 39.6959C56.9928 39.6115 56.7387 39.4425 56.4847 39.2736C56.2306 39.1047 56.0613 38.8513 55.9766 38.5979C55.8072 38.3446 55.7225 38.0912 55.7225 37.7533C55.6378 38.0912 55.4685 38.3446 55.2144 38.5979C55.045 38.8513 54.791 39.1047 54.4523 39.2736C54.1982 39.4425 53.8595 39.6115 53.5207 39.6959C53.436 39.8648 53.0973 39.8648 52.6739 39.8648ZM52.7586 36.9932C52.7586 37.1621 52.7586 37.4155 52.8432 37.5844C52.9279 37.7533 53.0126 37.9223 53.0973 38.0912C53.182 38.1756 53.3514 38.3446 53.436 38.3446C53.6054 38.429 53.7748 38.429 53.8595 38.429C54.0288 38.429 54.1135 38.429 54.2829 38.3446C54.3676 38.3446 54.5369 38.2601 54.6216 38.1756C54.7063 38.0912 54.8757 38.0067 54.9604 37.9223C55.045 37.8378 55.1297 37.7533 55.2144 37.5844C55.3838 37.2466 55.5532 36.9087 55.6378 36.5709C55.7225 36.2331 55.8072 35.8108 55.8072 35.4729V34.6283C55.3838 34.6283 54.9604 34.6283 54.6216 34.7128C54.1982 34.7973 53.8595 34.9662 53.5207 35.1351C53.3514 35.2196 53.2667 35.3885 53.182 35.4729C53.0973 35.5574 53.0126 35.7263 52.9279 35.8952C52.8432 36.0642 52.8432 36.2331 52.7586 36.402C52.6739 36.6554 52.6739 36.8243 52.7586 36.9932Z" fill="black"/>
</g>
<mask id="mask6_5_155" style="mask-type:luminance" maskUnits="userSpaceOnUse" x="0" y="0" width="94" height="50">
<path d="M94 0H0V50H94V0Z" fill="white"/>
</mask>
<g mask="url(#mask6_5_155)">
<path d="M61.3964 25.4223V24.6622L65.8 23.5642L66.0541 23.6487L65.8847 27.027V38.4291C65.8847 38.5135 65.8847 38.598 65.9694 38.6825C66.0541 38.7669 66.1387 38.7669 66.3081 38.7669L67.409 38.8514V39.6115H61.4811V38.8514L62.582 38.6825C62.6667 38.6825 62.836 38.6825 62.9207 38.598C63.0054 38.5135 63.0054 38.4291 63.0054 38.2602V25.9291C63.0054 25.8446 63.0054 25.6757 62.9207 25.5912C62.836 25.5068 62.7513 25.5068 62.582 25.5068L61.3964 25.4223Z" fill="black"/>
</g>
<mask id="mask7_5_155" style="mask-type:luminance" maskUnits="userSpaceOnUse" x="0" y="0" width="94" height="50">
<path d="M94 0H0V50H94V0Z" fill="white"/>
</mask>
<g mask="url(#mask7_5_155)">
<path d="M69.8649 44.5101C69.5261 44.5101 69.2721 44.5101 68.9334 44.3412C68.5946 44.2567 68.3406 44.0878 68.0865 43.9189C68.0018 43.8344 67.9171 43.75 67.7478 43.5811C67.5784 43.4121 67.5784 43.3277 67.4937 43.1588C67.409 42.9898 67.409 42.9054 67.3243 42.7365C67.3243 42.5675 67.3243 42.4831 67.3243 42.3142C67.3243 42.2297 67.3243 42.2297 67.3243 42.1453C67.3243 42.0608 67.3243 42.0608 67.3243 41.9763C67.3243 41.8919 67.3243 41.8919 67.3243 41.8074C67.3243 41.723 67.3243 41.723 67.409 41.6385C67.409 41.554 67.4937 41.554 67.4937 41.4696C67.4937 41.3851 67.5784 41.3851 67.5784 41.3007C67.5784 41.2162 67.6631 41.2162 67.6631 41.1317C67.6631 41.0473 67.7478 41.0473 67.7478 41.0473L67.8324 40.9628C67.9171 40.9628 67.9171 40.8784 68.0018 40.8784C68.0865 40.8784 68.0865 40.7939 68.1712 40.7939C68.2559 40.7939 68.2559 40.7094 68.3406 40.7094C68.4252 40.7094 68.4252 40.7094 68.5099 40.625C68.5946 40.625 68.5946 40.625 68.6793 40.625C68.764 40.625 68.764 40.625 68.8487 40.625C68.9334 40.625 68.9333 40.625 69.018 40.625C69.2721 40.625 69.5261 40.625 69.7802 40.7094C69.9496 40.7939 70.2036 40.8784 70.2883 41.0473L70.0342 43.3277C70.1189 43.3277 70.2036 43.3277 70.2883 43.3277C70.4577 43.3277 70.5424 43.3277 70.7117 43.2432C70.8811 43.1588 70.9658 43.1588 71.0505 43.0743C71.1352 42.9898 71.3045 42.9054 71.3892 42.8209C71.4739 42.7365 71.5586 42.652 71.6433 42.4831C72.1514 41.6385 72.6595 40.7094 72.9982 39.7804L68.9334 30.7432C68.8487 30.6588 68.8487 30.5743 68.764 30.4898C68.6793 30.4054 68.5099 30.4054 68.4252 30.4054L67.6631 30.3209V29.5608H73.2523V30.3209L72.4054 30.4054C72.3207 30.4054 72.1514 30.4054 72.0667 30.4898C72.0667 30.4898 71.982 30.4898 71.982 30.5743V30.6588C71.982 30.7432 72.0667 30.9121 72.0667 30.9966L73.8451 34.8817L74.5225 36.6554L76.8937 30.9966C76.9784 30.9121 76.9784 30.7432 76.9784 30.6588C76.9784 30.5743 76.9784 30.5743 76.8937 30.4898C76.809 30.4054 76.7243 30.4054 76.6397 30.4054L75.6234 30.2365V29.5608H79.3496V30.3209L78.5874 30.4898C78.5027 30.4898 78.3334 30.5743 78.2487 30.5743C78.164 30.6588 78.0793 30.7432 78.0793 30.8277L74.1838 39.8648C73.8451 40.7094 73.5063 41.3851 73.2523 41.8919C72.9982 42.3986 72.6595 42.9054 72.3207 43.3277C72.1514 43.4966 71.982 43.6655 71.8126 43.8344C71.6433 44.0034 71.4739 44.0878 71.2198 44.1723C71.0505 44.2567 70.7964 44.3412 70.5424 44.3412C70.373 44.4257 70.1189 44.5101 69.8649 44.5101Z" fill="black"/>
</g>
<mask id="mask8_5_155" style="mask-type:luminance" maskUnits="userSpaceOnUse" x="0" y="0" width="94" height="50">
<path d="M94 0H0V50H94V0Z" fill="white"/>
</mask>
<g mask="url(#mask8_5_155)">
<path d="M87.9027 36.4864C87.9027 36.9932 87.818 37.4155 87.6487 37.8378C87.4793 38.2601 87.1405 38.5979 86.8018 38.9358C86.4631 39.2736 86.0396 39.4425 85.5315 39.6114C85.0234 39.7804 84.4306 39.8648 83.9225 39.8648C83.3297 39.8648 82.8216 39.7804 82.2288 39.6114C81.7207 39.4425 81.382 39.1891 80.9586 38.8513L80.7045 39.7804H79.8577L79.6883 36.0641H80.6198C80.7045 36.4864 80.7892 36.8243 80.9586 37.1621C81.1279 37.5 81.382 37.8378 81.636 38.0912C81.8054 38.1756 81.8901 38.3445 82.0595 38.429C82.2288 38.5135 82.3982 38.5979 82.5676 38.6824C82.7369 38.7668 82.9063 38.7668 83.0757 38.8513C83.2451 38.8513 83.4144 38.9358 83.5838 38.9358C84.7694 38.9358 85.2775 38.5135 85.2775 37.5844C85.2775 36.8243 84.8541 36.3175 83.9225 36.0641L82.2288 35.4729C81.8901 35.3885 81.5514 35.2195 81.2126 35.0506C80.8739 34.8817 80.6198 34.6283 80.4505 34.375C80.2811 34.1216 80.1117 33.8682 80.027 33.5304C79.9423 33.1925 79.8577 32.9391 79.8577 32.6013C79.8577 32.179 79.9423 31.7567 80.1117 31.3344C80.2811 30.9121 80.5351 30.5743 80.8739 30.3209C81.2126 30.0675 81.636 29.8141 82.0595 29.6452C82.5676 29.4763 83.0757 29.3918 83.5838 29.3918C84.0919 29.3918 84.5153 29.4763 84.9387 29.5608C85.3622 29.7297 85.7856 29.8986 86.1243 30.2364L86.2937 29.6452L87.2252 29.3918L87.3099 32.7702H86.4631C86.3784 32.4324 86.2937 32.179 86.1243 31.8412C85.955 31.5878 85.7856 31.3344 85.5315 31.081C85.2775 30.9121 85.0234 30.7432 84.7694 30.5743C84.5153 30.4898 84.1766 30.4054 83.8378 30.4054C83.5838 30.4054 83.3297 30.4054 83.0757 30.4898C82.8216 30.5743 82.6523 30.6587 82.3982 30.8277C82.3135 30.9121 82.2288 30.9121 82.2288 30.9966C82.2288 31.081 82.1442 31.1655 82.0595 31.25C82.0595 31.3344 81.9748 31.4189 81.9748 31.5033C81.9748 31.5878 81.9748 31.6723 81.9748 31.7567C81.9748 31.9256 81.9748 32.0101 82.0595 32.179C82.1442 32.3479 82.2288 32.4324 82.3135 32.5168C82.6523 32.7702 82.991 33.0236 83.4144 33.1081L84.9387 33.6148C85.3622 33.6993 85.7009 33.8682 86.0396 34.1216C86.3784 34.2905 86.7171 34.5439 87.0559 34.8817C87.1405 34.9662 87.3099 35.1351 87.3946 35.304C87.4793 35.4729 87.564 35.5574 87.6487 35.7263C87.7333 35.8952 87.7333 36.0641 87.818 36.2331C87.818 36.402 87.9027 36.5709 87.9027 36.7398" fill="black"/>
</g>
</g>
<defs>
<clipPath id="clip0_5_155">
<rect width="94" height="50" fill="white"/>
</clipPath>
</defs>
</svg>
