<svg width="108" height="20" viewBox="0 0 108 20" fill="none" xmlns="http://www.w3.org/2000/svg">
<g opacity="0.25" clip-path="url(#clip0_5_147)">
<path d="M0.175537 0L9.40961 7.41379L16.1508 0.258621C16.2386 0.155172 16.1684 0 16.0279 0H0.175537Z" fill="#B6B6B6"/>
<path d="M0.175537 20L9.40961 12.5862L16.1508 19.7414C16.2386 19.8448 16.1684 20 16.0279 20H0.175537Z" fill="#B6B6B6"/>
<path d="M0.280884 0.0345157L12.552 9.8621C12.6398 9.93107 12.6398 10.0518 12.552 10.1207L0.280884 19.9483C0.175553 20.0518 0 19.9656 0 19.8276V0.172447C0 0.0345157 0.175553 -0.0516912 0.280884 0.0345157Z" fill="white"/>
<path d="M51.0332 14.1897C51.0332 17.6207 48.2068 19.9828 44.6957 19.9828H36.2341C36.1463 19.9828 36.0761 19.9138 36.0761 19.8276V0.155172C36.0761 0.0689655 36.1463 0 36.2341 0H44.0989C47.5221 0 50.2959 2.27586 50.2959 5.62069C50.2959 7.32759 49.5761 8.67241 48.3823 9.62069C49.9974 10.5345 51.0332 12.1034 51.0332 14.1897ZM40.0787 3.82759V7.93103C40.0787 8.01724 40.1489 8.10345 40.2543 8.10345H44.0989C45.4155 8.10345 46.381 7.05172 46.2757 5.68966C46.1879 4.55172 45.1697 3.7069 44.0111 3.7069H40.2191C40.1314 3.68966 40.0787 3.74138 40.0787 3.82759ZM47.0481 13.7414C46.9779 12.5172 45.8895 11.5862 44.6431 11.5862H40.0787V16.2931H44.6957C46.1177 16.3103 47.1359 15.2069 47.0481 13.7414ZM65.3934 16.3966H57.4935C57.4233 16.3966 57.3706 16.431 57.3531 16.5L56.1944 19.8966C56.1769 19.9655 56.1242 20 56.054 20H52.0514C51.9461 20 51.8758 19.8966 51.9109 19.8103L58.9331 0.12069C58.9506 0.0689655 59.0033 0.0172414 59.0735 0.0172414H63.831C63.9012 0.0172414 63.9539 0.0517241 63.9714 0.12069L71.0111 19.8103C71.0462 19.9138 70.976 20 70.8706 20H66.8329C66.7627 20 66.71 19.9655 66.6925 19.8966L65.5338 16.5C65.5163 16.431 65.4636 16.3966 65.3934 16.3966ZM64.1996 12.5172L61.619 4.96552C61.5663 4.82759 61.3732 4.82759 61.3381 4.96552L58.7575 12.5172C58.7224 12.6207 58.7926 12.7069 58.8979 12.7069H64.0592C64.147 12.7069 64.2347 12.6034 64.1996 12.5172ZM88.8472 0.172414V19.8276C88.8472 19.9138 88.777 19.9828 88.6892 19.9828H85.8804C85.8277 19.9828 85.7751 19.9655 85.7399 19.9138L77.0676 7.75862V19.8276C77.0676 19.9138 76.9974 19.9828 76.9096 19.9828H73.223C73.1353 19.9828 73.065 19.9138 73.065 19.8276V0.172414C73.065 0.0862069 73.1353 0.0172414 73.223 0.0172414H76.0319C76.0846 0.0172414 76.1372 0.0344828 76.1723 0.0862069L84.8446 12.2069V0.172414C84.8446 0.0862069 84.9148 0.0172414 85.0026 0.0172414H88.6892C88.777 0 88.8472 0.0689655 88.8472 0.172414ZM103.506 19.8966L99.7491 13.7069C99.6788 13.6034 99.5208 13.6034 99.4506 13.7069L95.6938 19.8966C95.6587 19.9483 95.606 19.9828 95.5533 19.9828H91.4103C91.2699 19.9828 91.1996 19.8448 91.2699 19.7241L97.2913 9.82759C97.3264 9.77586 97.3264 9.7069 97.2913 9.65517L91.5859 0.258621C91.5156 0.155172 91.6034 0 91.7263 0H95.8693C95.922 0 95.9922 0.0344828 96.0098 0.0862069L99.4506 5.75862C99.5208 5.86207 99.6788 5.86207 99.7491 5.75862L103.19 0.0862069C103.225 0.0344828 103.278 0 103.33 0H107.473C107.614 0 107.684 0.137931 107.614 0.258621L101.926 9.62069C101.891 9.67241 101.891 9.74138 101.926 9.7931L107.965 19.7241C108.035 19.8276 107.947 19.9828 107.824 19.9828H103.664C103.594 19.9828 103.541 19.9483 103.506 19.8966ZM25.5956 16.2069C25.0689 16.1379 24.6652 15.7069 24.6652 15.1724V11.8966C24.6652 11.8103 24.7354 11.7414 24.8232 11.7414H32.2139C32.3017 11.7414 32.3719 11.6724 32.3719 11.5862V8.17241C32.3719 8.08621 32.3017 8.01724 32.2139 8.01724H24.8232C24.7354 8.01724 24.6652 7.94828 24.6652 7.86207V3.93103C24.6652 3.84483 24.7354 3.77586 24.8232 3.77586H32.9337C33.0215 3.77586 33.0917 3.7069 33.0917 3.62069V0.155172C33.0917 0.0689655 33.0215 0 32.9337 0H20.803C20.7152 0 20.645 0.0689655 20.645 0.155172V12.1897V16.2586C20.645 18.3276 22.3479 20 24.4545 20H33.2321V16.2069H25.5956Z" fill="white"/>
</g>
<defs>
<clipPath id="clip0_5_147">
<rect width="108" height="20" fill="white"/>
</clipPath>
</defs>
</svg>
