<svg width="83" height="44" viewBox="0 0 83 44" fill="none" xmlns="http://www.w3.org/2000/svg">
<g opacity="0.25" clip-path="url(#clip0_5_194)">
<path fill-rule="evenodd" clip-rule="evenodd" d="M0 25.256H6.29053L9.78526 7.744H3.49474L0 25.256ZM4.80526 6.16H12.2316L13.4547 0H6.02842L4.80526 6.16ZM8.73684 30.184H15.0274L18.8716 11.264H23.5895L24.2884 7.744H19.6579L19.8326 6.952C20.0947 5.456 20.6189 3.784 22.9779 3.784C24.3758 3.784 25.6863 3.872 26.9968 4.488L27.6958 0.792C26.2105 0.264 24.6379 0 23.1526 0C18.0853 0 14.5905 2.992 13.28 7.744H11.0958L10.3968 11.264H12.5811L8.73684 30.184Z" fill="white"/>
<path fill-rule="evenodd" clip-rule="evenodd" d="M28.6568 25.608C36.0832 25.608 41.2379 18.8321 41.2379 13.2881C41.2379 9.15205 37.4811 7.39205 33.8116 7.39205C25.6863 7.39205 21.2305 14.696 21.2305 19.712C21.2305 23.848 25.0747 25.608 28.6568 25.608ZM48.5768 25.608C56.0032 25.608 61.1579 18.8321 61.1579 13.2881C61.1579 9.15205 57.3137 7.39205 53.6442 7.39205C45.5189 7.39205 41.0632 14.696 41.0632 19.712C41.0632 23.848 44.9947 25.608 48.5768 25.608ZM71.38 25.2561H77.5832L82.6505 0.352051H76.36L74.8747 7.74405L72.2537 7.48005C66.1379 7.48005 60.5463 15.4001 60.5463 21.0321C60.5463 23.3201 62.0316 25.608 64.5653 25.608C68.1474 25.608 70.6811 23.8481 71.7295 22.0881H72.0789L71.38 25.2561ZM51.9842 38.368C47.1014 42.4426 40.8303 44.4323 34.5105 43.912C26.2105 43.384 20.2695 36.96 19.2211 30.184H19.5705C21.4926 34.4081 26.1232 38.368 31.8021 38.9841C37.5684 39.688 44.4705 37.048 48.2274 33.44L44.0337 30.184H56.7021L53.9063 43.736L52.0716 38.4561L51.9842 38.368Z" fill="white"/>
</g>
<defs>
<clipPath id="clip0_5_194">
<rect width="83" height="44" fill="white"/>
</clipPath>
</defs>
</svg>
