<svg width="108" height="36" viewBox="0 0 108 36" fill="none" xmlns="http://www.w3.org/2000/svg">
<g opacity="0.25" clip-path="url(#clip0_5_201)">
<path d="M43.6898 5.91357H39.6553V27.2574H52.4849V23.3408H43.6898V5.91357Z" fill="white"/>
<path d="M60.7085 23.5843C58.3103 23.5669 56.6132 21.7404 56.6397 19.2052C56.6659 16.6819 58.3501 14.9329 60.7515 14.9353C63.1747 14.9376 64.8438 16.7126 64.8323 19.2751C64.8208 21.8262 63.1215 23.6019 60.7085 23.5843ZM60.7489 11.3864C56.2683 11.3703 52.8377 14.7796 52.8384 19.2478C52.8392 23.7242 56.2518 27.1286 60.7349 27.1254C65.2445 27.1223 68.6365 23.7466 68.6356 19.2628C68.6349 14.7597 65.2735 11.4025 60.7489 11.3864Z" fill="white"/>
<path d="M81.3692 19.3206C81.3372 21.8462 79.6474 23.6019 77.2494 23.5843C74.8512 23.5668 73.1541 21.7404 73.1806 19.2053C73.2069 16.6818 74.891 14.9328 77.2924 14.9352C79.6986 14.9377 81.3572 16.6897 81.3692 19.2231C81.3692 19.2557 81.369 19.288 81.3692 19.3206ZM81.3658 12.4567C80.192 11.781 78.8092 11.3917 77.2898 11.3863C72.8092 11.3702 69.3786 14.7795 69.3793 19.2477C69.3801 23.7241 72.7927 27.1285 77.276 27.1254C78.8002 27.1243 80.1913 26.7305 81.3725 26.0462C81.3729 27.0883 81.3734 27.7461 81.3734 27.7461C81.3619 30.2976 79.6625 32.0681 77.2494 32.0681C74.1507 32.0681 72.788 29.0153 72.788 29.0153L69.9494 30.7674C69.9494 30.7674 71.5802 35.6092 77.276 35.6092C81.7854 35.606 85.1774 32.2304 85.1767 27.7466V11.3745H81.3654C81.3654 11.3745 81.3655 11.7776 81.3658 12.4567Z" fill="white"/>
<path d="M97.9101 19.3214C97.8776 21.8466 96.188 23.6019 93.7902 23.5843C91.3921 23.5668 89.695 21.7404 89.7215 19.2053C89.7478 16.6818 91.4319 14.9328 93.8333 14.9353C96.2392 14.9377 97.8975 16.6894 97.9101 19.2223C97.9101 19.2554 97.9099 19.2883 97.9101 19.3214ZM97.9067 12.4567C96.7329 11.781 95.3501 11.3917 93.8308 11.3863C89.3503 11.3702 85.9195 14.7795 85.9202 19.2477C85.921 23.7241 89.3336 27.1285 93.8169 27.1254C95.341 27.1243 96.7323 26.7306 97.9134 26.0464C97.9138 27.0885 97.9143 27.7461 97.9143 27.7461C97.9028 30.2976 96.2034 32.0681 93.7902 32.0681C90.6916 32.0681 89.3289 29.0153 89.3289 29.0153L86.4903 30.7674C86.4903 30.7674 88.1211 35.6092 93.8169 35.6092C98.3263 35.606 101.718 32.2304 101.718 27.7466V11.3745H97.9063C97.9063 11.3745 97.9064 11.7778 97.9067 12.4567Z" fill="white"/>
<path d="M103.256 26.899H107.158V11.3745H103.256V26.899Z" fill="white"/>
<path d="M105.207 9.87609C106.285 9.87609 107.158 8.98799 107.158 7.8925C107.158 6.79701 106.285 5.90906 105.207 5.90906C104.13 5.90906 103.256 6.79701 103.256 7.8925C103.256 8.98799 104.13 9.87609 105.207 9.87609Z" fill="white"/>
<path d="M32.1565 8.90101C31.2841 8.43493 30.2596 8.02651 29.8764 7.87869C29.7445 7.78216 29.6605 7.71845 29.6605 7.71845C29.6605 7.71845 24.4935 3.96073 22.2154 2.98615C19.9372 2.01143 15.9755 -0.110373 11.9526 0.00448253C8.77631 0.095096 6.81622 0.694652 6.13096 0.861837C5.31878 1.05991 4.77572 1.29288 5.66555 1.71904C5.96347 1.86169 7.2335 2.6305 8.77558 3.5254C11.0282 4.83272 13.8611 6.40906 15.0922 6.69554C16.2709 6.96974 18.2124 7.37241 20.693 7.31889C23.5239 7.25799 24.9008 8.48593 25.1792 8.93412C24.6723 8.20271 22.7432 7.61468 20.1703 7.7764C17.6939 7.93205 15.7033 7.76324 14.5442 7.41276C12.2728 6.72599 9.83872 5.6948 7.79212 4.72111C6.95042 4.98172 6.43135 5.20064 6.11671 5.33619C5.40267 5.6438 4.73443 6.1962 5.73592 6.48327C6.452 6.68859 13.1479 9.12377 15.0973 9.24218C16.2053 9.30958 18.0229 9.3761 20.2612 8.94683C22.7937 8.46095 24.1126 9.51816 24.4221 9.92776C23.6313 11.1492 23.1137 12.5693 23.2617 14.1477C14.0032 12.488 11.048 11.6287 8.95732 11.2633C5.30235 10.6246 0.659406 13.7726 0.0900339 17.6711C-0.233618 19.8865 0.322232 21.9559 1.64607 23.8706C3.11166 25.9901 5.04005 27.8182 5.32052 28.2064C5.49965 28.5377 5.44135 29.4126 5.45371 30.0012C5.46752 30.6624 6.28552 31.2565 6.76184 31.3004C7.04565 31.3266 12.5274 33.0679 12.5274 33.0679L20.6485 35.6092C20.6485 35.6092 20.7718 35.0389 20.7964 34.7987C20.8586 34.1882 20.4015 32.6809 18.4985 32.1179C15.697 31.261 15.1464 31.0982 14.5503 30.9159C14.2294 30.8178 14.4545 30.8129 14.9517 30.4136C15.8001 29.6818 16.5272 28.6945 16.8987 27.8915C18.5561 24.3088 16.4702 21.1185 16.4702 21.1185C16.4702 21.1185 17.7721 22.5084 18.2612 24.9387C18.8723 27.9745 16.8481 30.3832 16.8481 30.3832L18.0561 30.7393C18.0561 30.7393 25.8586 22.7496 26.6208 21.8871C27.2642 21.1588 28.3834 20.6994 28.9524 20.5115C31.0336 19.8976 33.636 18.7121 34.2979 18.2862C34.9597 17.8604 35.7706 16.3566 35.9742 15.985C36.1776 15.6134 36.4445 15.1236 36.4964 14.5703C36.5146 14.376 35.4022 12.8673 35.4022 12.8673C35.4022 12.8673 33.6229 9.80803 32.1565 8.90101Z" fill="white"/>
<path d="M9.44788 33.5191C8.98624 33.7982 8.82616 34.5391 9.49818 34.9389C10.0946 35.258 12.098 34.1419 12.098 34.1419L10.0889 33.498C10.0889 33.498 9.77371 33.3631 9.44788 33.5191Z" fill="white"/>
</g>
<defs>
<clipPath id="clip0_5_201">
<rect width="108" height="36" fill="white"/>
</clipPath>
</defs>
</svg>
