<svg width="116" height="40" viewBox="0 0 116 40" fill="none" xmlns="http://www.w3.org/2000/svg">
<g opacity="0.25" clip-path="url(#clip0_5_214)">
<path d="M0.704315 29.6195V12.6028H6.21646V14.7945C6.21646 14.7945 8.36007 12.0548 11.698 12.0548C15.0359 12.0548 16.9651 14.7945 16.9651 14.7945C16.9651 14.7945 19.17 12.0548 22.6304 12.0548C26.8564 12.0548 28.8469 16.0122 28.8469 19.726V29.5891H22.5079C22.5079 26.5145 22.5691 23.4095 22.5079 20.3349C22.4773 18.9955 22.0792 17.3821 20.5174 17.3821C18.0676 17.3821 17.9451 20.3349 17.9451 22.0396V29.4368H11.6061V22.0396C11.6061 21.0655 11.7592 19.9696 11.453 19.0563C11.1161 18.0822 10.1975 17.4429 9.18689 17.4125C7.83948 17.4125 7.19639 18.6606 6.98203 19.8783C6.82892 20.7611 7.01266 29.4673 6.92079 29.4673L0.704315 29.6195Z" fill="white"/>
<path d="M48.8743 16.2253C48.0475 14.8859 46.8226 13.79 45.4139 13.1203C43.7909 12.3897 41.9842 11.9939 40.208 12.0548C37.0232 12.0548 34.5734 12.8159 32.8585 14.3988C31.113 15.9513 30.2249 18.1127 30.2249 20.9437C30.1943 22.5876 30.623 24.2314 31.4192 25.6926C32.246 27.0624 33.471 28.1279 34.8796 28.828C36.5026 29.5891 38.3094 29.9544 40.0855 29.9239C43.2397 29.9239 45.6895 29.1325 47.4351 27.5799C49.2112 26.0274 50.0686 23.8357 50.0686 21.0046C50.0993 19.2999 49.7012 17.6865 48.8743 16.2253ZM40.0243 25.3577C38.34 25.3577 36.9926 23.379 36.9926 20.9742C36.9926 18.5693 38.34 16.5906 40.0243 16.5906C41.7086 16.5906 43.056 18.5693 43.056 20.9742C43.056 23.379 41.6779 25.3577 40.0243 25.3577Z" fill="white"/>
<path d="M55.6114 29.6195H62.5016L69.1161 12.6028H62.226L59.4699 23.5921H59.1943L56.4382 12.6028H49.2724L55.6114 29.6195Z" fill="white"/>
<path d="M90.6442 5.20544V13.8812C89.1436 12.9071 87.4594 12.3896 85.6832 12.3592C83.5396 12.3592 81.396 13.3637 79.9261 14.8858C78.2112 16.621 77.6906 18.7519 77.6906 21.1263C77.6906 25.5099 79.3443 27.4277 79.3443 27.4277C79.3443 27.4277 81.5491 30.4414 85.132 30.4414C89.8173 30.4414 90.9198 27.4277 90.9198 27.4277H91.471V29.8934H97.2587V5.20544H90.6442ZM87.4594 25.0837C85.6526 25.0837 84.1521 23.3485 84.1521 21.2481C84.1521 19.1476 85.6526 17.4124 87.4594 17.4124C89.2661 17.4124 90.7666 19.1476 90.7666 21.2481C90.7666 23.3485 89.2661 25.0837 87.4594 25.0837Z" fill="white"/>
<path d="M113.52 13.9726C113.52 13.9726 112.142 12.3287 107.426 12.3287C102.71 12.3287 100.29 13.9726 100.29 13.9726L101.117 17.8082L101.27 18.2344C101.27 18.2344 104.026 16.8645 106.507 16.8645C108.987 16.8645 109.539 17.9604 109.539 17.9604V18.5083C106.997 18.5083 104.363 18.8432 102.036 19.9695C101.117 20.3957 100.229 20.9741 99.7392 21.8873C99.2798 22.7701 99.0349 23.7443 99.0349 24.7793C99.0349 27.4581 100.413 28.7062 100.413 28.7062C100.413 28.7062 101.791 30.35 105.129 30.35C108.467 30.35 110.059 28.7062 110.059 28.7062H110.335V29.9543H116V18.9954C116 15.8904 113.52 13.9726 113.52 13.9726ZM109.569 24.14C109.416 24.8097 108.987 25.2054 108.314 25.5099C107.395 25.936 105.527 26.21 105.527 24.6879C105.527 22.4962 108.007 22.2222 108.007 22.2222H109.661C109.753 22.2222 109.692 23.4703 109.661 23.5921C109.661 23.7747 109.63 23.9574 109.569 24.14Z" fill="white"/>
<path d="M79.038 6.57534C80.8646 6.57534 82.3453 5.1034 82.3453 3.28767C82.3453 1.47194 80.8646 0 79.038 0C77.2115 0 75.7307 1.47194 75.7307 3.28767C75.7307 5.1034 77.2115 6.57534 79.038 6.57534Z" fill="white"/>
<path d="M74.0771 6.57532L78.7624 9.04107C78.7624 9.04107 74.9039 12.0548 74.9039 21.0959C74.9039 29.1933 78.7624 32.8767 78.7624 32.8767L73.924 35.4946C73.924 35.4946 69.7899 30.137 69.7899 21.0045C69.7899 11.8721 74.0771 6.57532 74.0771 6.57532Z" fill="white"/>
<path d="M2.78669 38.1126L2.69483 37.6864H2.6642C2.35797 38.0517 1.89863 38.2648 1.40866 38.2344C0.673706 38.2648 0.061246 37.7169 0 36.9863C0 36.9559 0 36.9254 0 36.895C0 35.7686 1.01056 35.2207 2.57233 35.2207V35.1294C2.57233 34.9163 2.41922 34.551 1.77614 34.551C1.34741 34.551 0.918691 34.6727 0.551214 34.8858L0.30623 34.003C0.826822 33.7291 1.43928 33.6073 2.02112 33.6073C3.49102 33.6073 3.95037 34.4597 3.95037 35.4947V37.0167C3.95037 37.382 3.98099 37.7169 4.01162 38.0822L2.78669 38.1126ZM2.63358 36.0426C1.92925 36.0426 1.37804 36.1948 1.37804 36.7428C1.34741 37.0167 1.53115 37.2298 1.80676 37.2603C1.83738 37.2603 1.89863 37.2603 1.92925 37.2603C2.2661 37.2603 2.54171 37.0776 2.63358 36.7732C2.6642 36.6819 2.6642 36.621 2.6642 36.5601L2.63358 36.0426Z" fill="white"/>
<path d="M5.02219 31.7808H6.3696V38.1126H5.02219V31.7808Z" fill="white"/>
<path d="M11.6368 36.7123C11.6368 37.2907 11.6674 37.7473 11.6674 38.1126H10.4731L10.4118 37.5038C10.1056 37.9604 9.58502 38.2344 9.03381 38.2039C8.14574 38.2039 7.50266 37.656 7.50266 36.3166V33.7291H8.88069V36.073C8.88069 36.7123 9.06443 37.0776 9.58502 37.0776C9.89125 37.0776 10.1669 36.895 10.2893 36.621C10.32 36.4992 10.3506 36.4383 10.3506 36.3166V33.6986H11.7286L11.6368 36.7123Z" fill="white"/>
<path d="M16.9345 33.7595C16.9039 34.0335 16.9039 34.3988 16.9039 35.0381V37.4734C16.9039 38.3258 16.7508 38.9955 16.2302 39.4521C15.7096 39.8478 15.0665 40.0305 14.4235 40C13.8722 40.0305 13.3516 39.8783 12.8617 39.6652L13.1679 38.6606C13.566 38.8737 13.9947 38.9955 14.4235 38.9955C15.0665 38.9955 15.5565 38.6302 15.5565 37.8387V37.5647H15.5259C15.2503 37.9605 14.8216 38.1431 14.3316 38.1431C13.2598 38.1431 12.4942 37.2603 12.4942 36.0122C12.4942 34.6119 13.4129 33.6987 14.4847 33.6987C14.9747 33.6682 15.434 33.8813 15.7096 34.3075H15.7402L15.8015 33.79L16.9345 33.7595ZM15.5259 35.4947C15.5259 35.4034 15.5259 35.3425 15.4953 35.2512C15.4034 34.8859 15.0972 34.6423 14.7603 34.6423C14.2703 34.6423 13.8416 35.0685 13.8416 35.8904C13.8416 36.5602 14.1785 37.0472 14.7603 37.0472C15.0972 37.0472 15.4034 36.8341 15.4646 36.4993C15.4953 36.3775 15.5259 36.2557 15.5259 36.134V35.4947Z" fill="white"/>
<path d="M22.1098 36.7123C22.1098 37.2907 22.1405 37.7473 22.1405 38.1126H20.9462L20.8849 37.5038H20.8543C20.5481 37.9604 20.0275 38.2344 19.4762 38.2039C18.5882 38.2039 17.9451 37.656 17.9451 36.3166V33.7291H19.3231V36.073C19.3231 36.7123 19.5069 37.0776 20.0275 37.0776C20.3337 37.0776 20.6093 36.895 20.7318 36.621C20.7624 36.4992 20.793 36.4383 20.793 36.3166V33.6986H22.1711L22.1098 36.7123Z" fill="white"/>
<path d="M24.2841 36.347C24.3453 36.9254 24.8965 37.1689 25.5396 37.1689C25.9683 37.1689 26.3664 37.108 26.7645 36.9862L26.9483 37.9299C26.4583 38.1126 25.9071 38.2343 25.3559 38.2039C23.8553 38.2039 22.9979 37.3515 22.9979 35.9817C22.9979 34.8858 23.7022 33.6377 25.2028 33.6377C26.6114 33.6377 27.1626 34.7336 27.1626 35.799C27.1626 35.9817 27.132 36.1643 27.1014 36.347H24.2841ZM25.8765 35.4337C25.8765 35.0989 25.7233 34.5509 25.1109 34.5509C24.529 34.5509 24.3147 35.0684 24.2534 35.4337H25.8765Z" fill="white"/>
<path d="M27.9588 31.7808H29.3062V38.1126H27.9588V31.7808Z" fill="white"/>
<path d="M36.5026 31.7808V36.834C36.5026 37.3211 36.5333 37.8386 36.5333 38.143H35.3083L35.2471 37.5037H35.2165C34.9409 37.9908 34.3896 38.2648 33.8384 38.2343C32.7972 38.2343 31.9704 37.3515 31.9704 35.9817C31.9704 34.49 32.8891 33.6377 33.9303 33.6377C34.4815 33.6377 34.9102 33.8203 35.094 34.1247H35.1246V31.7808H36.5026ZM35.1246 35.5859C35.1246 35.4946 35.1246 35.4337 35.094 35.3424C35.0021 34.9467 34.6653 34.6727 34.2978 34.6727C33.6853 34.6727 33.3485 35.2206 33.3485 35.9208C33.3485 36.6514 33.7159 37.1384 34.2978 37.1384C34.6959 37.1384 35.0021 36.8645 35.094 36.4687C35.1246 36.347 35.1246 36.2861 35.1246 36.1643V35.5859Z" fill="white"/>
<path d="M38.6769 36.347C38.7381 36.9254 39.2893 37.1689 39.9324 37.1689C40.3611 37.1689 40.7592 37.108 41.1573 36.9862L41.3411 37.9299C40.8511 38.1126 40.2999 38.2343 39.7487 38.2039C38.2482 38.2039 37.3907 37.3515 37.3907 35.9817C37.3907 34.8858 38.095 33.6377 39.5956 33.6377C41.0042 33.6377 41.5554 34.7336 41.5554 35.799C41.5554 35.9817 41.5248 36.1643 41.4942 36.347H38.6769ZM40.2693 35.4337C40.2693 35.0989 40.1162 34.5509 39.5037 34.5509C38.9219 34.5509 38.7075 35.0684 38.6463 35.4337H40.2693Z" fill="white"/>
<path d="M47.4657 37.9909C47.0676 38.1431 46.6695 38.1735 46.2408 38.1735C44.8321 38.1735 43.9134 37.3211 43.9134 35.9513C43.9134 34.6727 44.8015 33.6073 46.4245 33.6073C46.792 33.6073 47.1288 33.6682 47.4657 33.7595L47.2513 34.7641C47.0063 34.6423 46.7614 34.6119 46.4858 34.6119C45.7814 34.6119 45.2302 35.1903 45.2608 35.86C45.2608 36.5601 45.8427 37.1081 46.5164 37.0776C46.792 37.0776 47.037 37.0472 47.282 36.9254L47.4657 37.9909Z" fill="white"/>
<path d="M50.7424 38.1126L50.6505 37.6864H50.6199C50.3136 38.0517 49.8543 38.2648 49.3643 38.2344C48.6294 38.2648 48.0169 37.7169 47.9557 36.9863C47.9557 36.9559 47.9557 36.9254 47.9557 36.895C47.9557 35.7686 48.9662 35.2207 50.528 35.2207V35.1294C50.528 34.9163 50.3749 34.551 49.7318 34.551C49.3031 34.551 48.8743 34.6727 48.5069 34.8858L48.2619 34.003C48.7825 33.7291 49.3949 33.6073 49.9768 33.6073C51.4467 33.6073 51.906 34.4597 51.906 35.4947V37.0167C51.906 37.382 51.9366 37.7169 51.9673 38.0822L50.7424 38.1126ZM50.5892 36.0426C49.8849 36.0426 49.3337 36.1948 49.3337 36.7428C49.3031 37.0167 49.4868 37.2298 49.7624 37.2603C49.793 37.2603 49.8543 37.2603 49.8849 37.2603C50.2218 37.2603 50.4974 37.0776 50.5892 36.7732C50.6199 36.6819 50.6199 36.621 50.6199 36.5601L50.5892 36.0426Z" fill="white"/>
<path d="M52.9778 35.1902C52.9778 34.5509 52.9472 34.1248 52.9472 33.7595H54.1415L54.2028 34.5509H54.2334C54.3865 34.0334 54.8765 33.6681 55.4277 33.6377C55.5195 33.6377 55.6114 33.6377 55.7033 33.6681V34.9467C55.5808 34.9162 55.4583 34.9162 55.3358 34.9162C54.9071 34.8858 54.509 35.1598 54.3865 35.6164C54.3559 35.7382 54.3559 35.799 54.3559 35.9208V38.143H53.0085L52.9778 35.1902Z" fill="white"/>
<path d="M56.4076 35.1902C56.4076 34.5509 56.377 34.1248 56.377 33.7595H57.5713L57.6325 34.5509H57.6631C57.8163 34.0334 58.3062 33.6681 58.8574 33.6377C58.9493 33.6377 59.0412 33.6377 59.1331 33.6681V34.9467C59.0106 34.9162 58.8881 34.9162 58.7656 34.9162C58.3369 34.8858 57.9388 35.1598 57.8163 35.6164C57.7856 35.7382 57.7856 35.799 57.7856 35.9208V38.143H56.4382L56.4076 35.1902Z" fill="white"/>
<path d="M64.0634 35.86C64.0634 37.4429 62.9303 38.204 61.736 38.204C60.4498 38.204 59.4699 37.3516 59.4699 35.9513C59.4699 34.551 60.4192 33.6378 61.8279 33.6378C62.9916 33.5464 63.9715 34.4597 64.0634 35.6165C64.0634 35.7078 64.0634 35.7687 64.0634 35.86ZM60.9092 35.9209C60.9092 36.6515 61.2154 37.2299 61.8279 37.2299C62.3485 37.2299 62.716 36.7124 62.716 35.9209C62.716 35.2512 62.471 34.6119 61.8279 34.6119C61.1848 34.6119 60.9092 35.2816 60.9092 35.9209Z" fill="white"/>
<path d="M64.9208 36.8949C65.2883 37.108 65.6864 37.2298 66.1151 37.2298C66.5438 37.2298 66.6969 37.0776 66.6969 36.8645C66.6969 36.6514 66.5438 36.5296 66.0539 36.3774C65.1352 36.073 64.7983 35.5859 64.7983 35.0684C64.7983 34.2465 65.5026 33.6377 66.6051 33.6377C67.0338 33.6377 67.4625 33.729 67.8606 33.8812L67.6156 34.8249C67.3094 34.6727 66.9726 34.5814 66.6357 34.5814C66.2988 34.5814 66.1151 34.7336 66.1151 34.9467C66.1151 35.1598 66.2682 35.2511 66.8194 35.4337C67.6463 35.7077 68.0137 36.1339 68.0137 36.7732C68.0137 37.5951 67.3707 38.1735 66.1151 38.1735C65.6251 38.1735 65.1352 38.0517 64.7065 37.8691L64.9208 36.8949Z" fill="white"/>
</g>
<defs>
<clipPath id="clip0_5_214">
<rect width="116" height="40" fill="white"/>
</clipPath>
</defs>
</svg>
