<svg width="60" height="32" viewBox="0 0 60 32" fill="none" xmlns="http://www.w3.org/2000/svg">
<g opacity="0.25">
<path fill-rule="evenodd" clip-rule="evenodd" d="M11.3749 26.1105C7.75561 26.1105 5.42892 23.2668 5.42892 18.872C5.42892 14.4771 8.01413 11.8919 11.3749 11.8919C14.7357 11.8919 17.3209 14.7356 17.3209 19.1305C17.0623 23.2668 14.7357 26.1105 11.3749 26.1105ZM11.3749 31.5394C17.8379 31.5394 22.7498 26.369 22.7498 18.872C22.7498 11.6334 18.0964 6.20447 11.3749 6.20447C4.91188 6.46299 0 11.8919 0 19.1305C0 26.369 4.65336 31.5394 11.3749 31.5394Z" fill="white"/>
<path fill-rule="evenodd" clip-rule="evenodd" d="M27.4032 21.9742H38.2611C39.0366 21.9742 39.2952 21.7157 39.2952 20.9401V17.3209C39.2952 16.5453 39.0366 16.2868 38.2611 16.2868H31.0225V1.03408C31.0225 0.25852 30.764 0 29.9884 0H26.3691C25.5936 0 25.3351 0.25852 25.3351 1.03408V19.6475C25.0765 21.1987 25.8521 21.9742 27.4032 21.9742Z" fill="white"/>
<path fill-rule="evenodd" clip-rule="evenodd" d="M42.1389 31.281L48.6019 23.5254L55.0649 31.281C55.5819 32.0566 56.3575 32.0566 56.8745 31.5395L59.4597 29.2129C59.9768 28.6958 60.2353 27.9203 59.7183 27.4032L52.4797 19.1306L58.9427 11.892C59.4597 11.375 59.4597 10.5994 58.6842 10.0824L56.3575 7.75569C55.8405 6.7216 55.3234 6.72161 54.5478 7.49717L48.8604 14.4772L42.9144 7.49717C42.3974 6.98013 41.6218 6.7216 41.1048 7.23864L38.7781 9.56533C38.2611 10.0824 38.0026 10.8579 38.7781 11.375L45.2411 18.6135L38.0026 26.6277C37.4855 27.4032 37.4855 27.9203 38.2611 28.4373L40.5878 30.764C40.8463 31.7981 41.6218 31.7981 42.1389 31.281Z" fill="white"/>
</g>
</svg>
