<svg width="110" height="27" viewBox="0 0 110 27" fill="none" xmlns="http://www.w3.org/2000/svg">
<path d="M11.8105 17.9668V0.40625H17.9629V17.9668C17.9629 19.6777 17.5703 21.1602 16.7852 22.4141C16.0117 23.668 14.957 24.6406 13.6211 25.332C12.2969 26.0117 10.8086 26.3516 9.15625 26.3516C7.44531 26.3516 5.92188 26.0645 4.58594 25.4902C3.26172 24.916 2.21875 24.0312 1.45703 22.8359C0.707031 21.6406 0.332031 20.1172 0.332031 18.2656H6.51953C6.51953 19.1328 6.61914 19.8125 6.81836 20.3047C7.01758 20.7852 7.31055 21.125 7.69727 21.3242C8.0957 21.5117 8.58203 21.6055 9.15625 21.6055C9.71875 21.6055 10.1934 21.4648 10.5801 21.1836C10.9785 20.8906 11.2832 20.4746 11.4941 19.9355C11.7051 19.3848 11.8105 18.7285 11.8105 17.9668ZM38.7695 0.40625H44.9395V17.123C44.9395 19.1152 44.5234 20.8027 43.6914 22.1855C42.8594 23.5566 41.6934 24.5938 40.1934 25.2969C38.6934 26 36.9297 26.3516 34.9023 26.3516C32.8984 26.3516 31.1348 26 29.6113 25.2969C28.0996 24.5938 26.916 23.5566 26.0605 22.1855C25.2168 20.8027 24.7949 19.1152 24.7949 17.123V0.40625H30.9824V17.123C30.9824 18.1777 31.1348 19.0391 31.4395 19.707C31.7441 20.3633 32.1895 20.8438 32.7754 21.1484C33.3613 21.4531 34.0703 21.6055 34.9023 21.6055C35.7461 21.6055 36.4551 21.4531 37.0293 21.1484C37.6035 20.8438 38.0371 20.3633 38.3301 19.707C38.623 19.0391 38.7695 18.1777 38.7695 17.123V0.40625ZM60.1387 26H54.4609L54.4961 21.2539H60.1387C61.3105 21.2539 62.3008 20.9727 63.1094 20.4102C63.9297 19.8477 64.5508 19.0098 64.9727 17.8965C65.4062 16.7715 65.623 15.3887 65.623 13.748V12.6406C65.623 11.4102 65.5 10.332 65.2539 9.40625C65.0195 8.46875 64.668 7.68945 64.1992 7.06836C63.7305 6.43555 63.1445 5.96094 62.4414 5.64453C61.75 5.32812 60.9531 5.16992 60.0508 5.16992H54.3555V0.40625H60.0508C61.7852 0.40625 63.373 0.705078 64.8145 1.30273C66.2676 1.88867 67.5215 2.73242 68.5762 3.83398C69.6426 4.92383 70.4629 6.21875 71.0371 7.71875C71.623 9.20703 71.916 10.8594 71.916 12.6758V13.748C71.916 15.5527 71.623 17.2051 71.0371 18.7051C70.4629 20.2051 69.6484 21.5 68.5938 22.5898C67.5391 23.6797 66.291 24.5234 64.8496 25.1211C63.4199 25.707 61.8496 26 60.1387 26ZM57.9941 0.40625V26H51.8242V0.40625H57.9941Z" fill="white"/>
<path d="M82.791 0.40625V26H79.3984V0.40625H82.791ZM100.891 0.40625V26H97.5508V0.40625H100.891ZM109.117 0.40625V3.18359H89.3418V0.40625H109.117Z" fill="#15BE62"/>
</svg>
