<svg width="108" height="27" viewBox="0 0 108 27" fill="none" xmlns="http://www.w3.org/2000/svg">
<path d="M12.1289 17.9668V0.40625H18.2812V17.9668C18.2812 19.6777 17.8887 21.1602 17.1035 22.4141C16.3301 23.668 15.2754 24.6406 13.9395 25.332C12.6152 26.0117 11.127 26.3516 9.47461 26.3516C7.76367 26.3516 6.24023 26.0645 4.9043 25.4902C3.58008 24.916 2.53711 24.0312 1.77539 22.8359C1.02539 21.6406 0.650391 20.1172 0.650391 18.2656H6.83789C6.83789 19.1328 6.9375 19.8125 7.13672 20.3047C7.33594 20.7852 7.62891 21.125 8.01562 21.3242C8.41406 21.5117 8.90039 21.6055 9.47461 21.6055C10.0371 21.6055 10.5117 21.4648 10.8984 21.1836C11.2969 20.8906 11.6016 20.4746 11.8125 19.9355C12.0234 19.3848 12.1289 18.7285 12.1289 17.9668Z" fill="#252525"/>
<path d="M39.0879 0.40625H45.2578V17.123C45.2578 19.1152 44.8418 20.8027 44.0098 22.1855C43.1777 23.5566 42.0117 24.5938 40.5117 25.2969C39.0117 26 37.248 26.3516 35.2207 26.3516C33.2168 26.3516 31.4531 26 29.9297 25.2969C28.418 24.5938 27.2344 23.5566 26.3789 22.1855C25.5352 20.8027 25.1133 19.1152 25.1133 17.123V0.40625H31.3008V17.123C31.3008 18.1777 31.4531 19.0391 31.7578 19.707C32.0625 20.3633 32.5078 20.8438 33.0938 21.1484C33.6797 21.4531 34.3887 21.6055 35.2207 21.6055C36.0645 21.6055 36.7734 21.4531 37.3477 21.1484C37.9219 20.8438 38.3555 20.3633 38.6484 19.707C38.9414 19.0391 39.0879 18.1777 39.0879 17.123V0.40625Z" fill="#252525"/>
<path d="M60.457 26H54.7793L54.8145 21.2539H60.457C61.6289 21.2539 62.6191 20.9727 63.4277 20.4102C64.248 19.8477 64.8691 19.0098 65.291 17.8965C65.7246 16.7715 65.9414 15.3887 65.9414 13.748V12.6406C65.9414 11.4102 65.8184 10.332 65.5723 9.40625C65.3379 8.46875 64.9863 7.68945 64.5176 7.06836C64.0488 6.43555 63.4629 5.96094 62.7598 5.64453C62.0684 5.32812 61.2715 5.16992 60.3691 5.16992H54.6738V0.40625H60.3691C62.1035 0.40625 63.6914 0.705078 65.1328 1.30273C66.5859 1.88867 67.8398 2.73242 68.8945 3.83398C69.9609 4.92383 70.7812 6.21875 71.3555 7.71875C71.9414 9.20703 72.2344 10.8594 72.2344 12.6758V13.748C72.2344 15.5527 71.9414 17.2051 71.3555 18.7051C70.7812 20.2051 69.9668 21.5 68.9121 22.5898C67.8574 23.6797 66.6094 24.5234 65.168 25.1211C63.7383 25.707 62.168 26 60.457 26ZM58.3125 0.40625V26H52.1426V0.40625H58.3125Z" fill="#252525"/>
<path d="M81.1094 0.40625V26H77.7168V0.40625H81.1094Z" fill="#15BE62"/>
<path d="M99.209 0.40625V26H95.8691V0.40625H99.209ZM107.436 0.40625V3.18359H87.6602V0.40625H107.436Z" fill="#15BE62"/>
</svg>
