<svg width="38" height="23" viewBox="0 0 38 23" fill="none" xmlns="http://www.w3.org/2000/svg">
<path fill-rule="evenodd" clip-rule="evenodd" d="M18.6316 20.049C16.6582 21.7124 14.0984 22.7166 11.3011 22.7166C5.0597 22.7166 0 17.7171 0 11.5499C0 5.38276 5.0597 0.38327 11.3011 0.38327C14.0984 0.38327 16.6582 1.38743 18.6316 3.05084C20.605 1.38743 23.1649 0.38327 25.9621 0.38327C32.2036 0.38327 37.2632 5.38276 37.2632 11.5499C37.2632 17.7171 32.2036 22.7166 25.9621 22.7166C23.1649 22.7166 20.605 21.7124 18.6316 20.049Z" fill="#ED0006"/>
<path fill-rule="evenodd" clip-rule="evenodd" d="M18.6316 20.049C21.0615 18.0009 22.6023 14.9532 22.6023 11.5499C22.6023 8.14668 21.0615 5.09901 18.6316 3.05084C20.605 1.38743 23.1649 0.38327 25.9621 0.38327C32.2035 0.38327 37.2632 5.38276 37.2632 11.5499C37.2632 17.7171 32.2035 22.7166 25.9621 22.7166C23.1649 22.7166 20.605 21.7124 18.6316 20.049Z" fill="#F9A000"/>
<path fill-rule="evenodd" clip-rule="evenodd" d="M18.6318 20.049C21.0616 18.0008 22.6024 14.9532 22.6024 11.5499C22.6024 8.14669 21.0616 5.09904 18.6318 3.05086C16.2019 5.09904 14.6611 8.14669 14.6611 11.5499C14.6611 14.9532 16.2019 18.0008 18.6318 20.049Z" fill="#FF5E00"/>
</svg>
