<svg width="384" height="18" viewBox="0 0 384 18" fill="none" xmlns="http://www.w3.org/2000/svg">
<path d="M358.385 10.6914C358.385 11.2109 358.264 11.6523 358.021 12.0156C357.783 12.375 357.459 12.6484 357.049 12.8359C356.643 13.0234 356.184 13.1172 355.672 13.1172C355.16 13.1172 354.699 13.0234 354.289 12.8359C353.879 12.6484 353.555 12.375 353.316 12.0156C353.078 11.6523 352.959 11.2109 352.959 10.6914C352.959 10.3516 353.023 10.041 353.152 9.75977C353.285 9.47461 353.471 9.22656 353.709 9.01562C353.951 8.80469 354.236 8.64258 354.564 8.5293C354.896 8.41211 355.262 8.35352 355.66 8.35352C356.184 8.35352 356.65 8.45508 357.061 8.6582C357.471 8.85742 357.793 9.13281 358.027 9.48438C358.266 9.83594 358.385 10.2383 358.385 10.6914ZM357.295 10.668C357.295 10.3516 357.227 10.0723 357.09 9.83008C356.953 9.58398 356.762 9.39258 356.516 9.25586C356.27 9.11914 355.984 9.05078 355.66 9.05078C355.328 9.05078 355.041 9.11914 354.799 9.25586C354.561 9.39258 354.375 9.58398 354.242 9.83008C354.109 10.0723 354.043 10.3516 354.043 10.668C354.043 10.9961 354.107 11.2773 354.236 11.5117C354.369 11.7422 354.557 11.9199 354.799 12.0449C355.045 12.166 355.336 12.2266 355.672 12.2266C356.008 12.2266 356.297 12.166 356.539 12.0449C356.781 11.9199 356.967 11.7422 357.096 11.5117C357.229 11.2773 357.295 10.9961 357.295 10.668ZM358.186 6.68945C358.186 7.10352 358.076 7.47656 357.857 7.80859C357.639 8.14062 357.34 8.40234 356.961 8.59375C356.582 8.78516 356.152 8.88086 355.672 8.88086C355.184 8.88086 354.748 8.78516 354.365 8.59375C353.986 8.40234 353.689 8.14062 353.475 7.80859C353.26 7.47656 353.152 7.10352 353.152 6.68945C353.152 6.19336 353.26 5.77148 353.475 5.42383C353.693 5.07617 353.992 4.81055 354.371 4.62695C354.75 4.44336 355.182 4.35156 355.666 4.35156C356.154 4.35156 356.588 4.44336 356.967 4.62695C357.346 4.81055 357.643 5.07617 357.857 5.42383C358.076 5.77148 358.186 6.19336 358.186 6.68945ZM357.102 6.70703C357.102 6.42188 357.041 6.16992 356.92 5.95117C356.799 5.73242 356.631 5.56055 356.416 5.43555C356.201 5.30664 355.951 5.24219 355.666 5.24219C355.381 5.24219 355.131 5.30273 354.916 5.42383C354.705 5.54102 354.539 5.70898 354.418 5.92773C354.301 6.14648 354.242 6.40625 354.242 6.70703C354.242 7 354.301 7.25586 354.418 7.47461C354.539 7.69336 354.707 7.86328 354.922 7.98438C355.137 8.10547 355.387 8.16602 355.672 8.16602C355.957 8.16602 356.205 8.10547 356.416 7.98438C356.631 7.86328 356.799 7.69336 356.92 7.47461C357.041 7.25586 357.102 7 357.102 6.70703ZM363.371 4.46875H364.467L367.262 11.4238L370.051 4.46875H371.152L367.684 13H366.828L363.371 4.46875ZM363.014 4.46875H363.98L364.139 9.67188V13H363.014V4.46875ZM370.537 4.46875H371.504V13H370.379V9.67188L370.537 4.46875ZM376.754 5.22461L373.93 13H372.775L376.027 4.46875H376.771L376.754 5.22461ZM379.121 13L376.291 5.22461L376.273 4.46875H377.018L380.281 13H379.121ZM378.975 9.8418V10.7676H374.182V9.8418H378.975ZM382.637 4.46875V13H381.506V4.46875H382.637Z" fill="#A7A7A7"/>
<path d="M292.568 4.42188V13H291.484V5.77539L289.299 6.57227V5.59375L292.398 4.42188H292.568ZM299.371 4.46875H300.467L303.262 11.4238L306.051 4.46875H307.152L303.684 13H302.828L299.371 4.46875ZM299.014 4.46875H299.98L300.139 9.67188V13H299.014V4.46875ZM306.537 4.46875H307.504V13H306.379V9.67188L306.537 4.46875ZM312.754 5.22461L309.93 13H308.775L312.027 4.46875H312.771L312.754 5.22461ZM315.121 13L312.291 5.22461L312.273 4.46875H313.018L316.281 13H315.121ZM314.975 9.8418V10.7676H310.182V9.8418H314.975ZM318.637 4.46875V13H317.506V4.46875H318.637Z" fill="#A7A7A7"/>
<path d="M222.711 12.1094V13H217.127V12.2207L219.922 9.10938C220.266 8.72656 220.531 8.40234 220.719 8.13672C220.91 7.86719 221.043 7.62695 221.117 7.41602C221.195 7.20117 221.234 6.98242 221.234 6.75977C221.234 6.47852 221.176 6.22461 221.059 5.99805C220.945 5.76758 220.777 5.58398 220.555 5.44727C220.332 5.31055 220.062 5.24219 219.746 5.24219C219.367 5.24219 219.051 5.31641 218.797 5.46484C218.547 5.60938 218.359 5.8125 218.234 6.07422C218.109 6.33594 218.047 6.63672 218.047 6.97656H216.963C216.963 6.49609 217.068 6.05664 217.279 5.6582C217.49 5.25977 217.803 4.94336 218.217 4.70898C218.631 4.4707 219.141 4.35156 219.746 4.35156C220.285 4.35156 220.746 4.44727 221.129 4.63867C221.512 4.82617 221.805 5.0918 222.008 5.43555C222.215 5.77539 222.318 6.17383 222.318 6.63086C222.318 6.88086 222.275 7.13477 222.189 7.39258C222.107 7.64648 221.992 7.90039 221.844 8.1543C221.699 8.4082 221.529 8.6582 221.334 8.9043C221.143 9.15039 220.938 9.39258 220.719 9.63086L218.434 12.1094H222.711ZM229.637 10.1289V11.0195H223.473V10.3809L227.293 4.46875H228.178L227.229 6.17969L224.703 10.1289H229.637ZM228.447 4.46875V13H227.363V4.46875H228.447ZM237.037 5.22461L234.213 13H233.059L236.311 4.46875H237.055L237.037 5.22461ZM239.404 13L236.574 5.22461L236.557 4.46875H237.301L240.564 13H239.404ZM239.258 9.8418V10.7676H234.465V9.8418H239.258ZM244.748 9.00977H242.586L242.574 8.10156H244.537C244.861 8.10156 245.145 8.04688 245.387 7.9375C245.629 7.82812 245.816 7.67188 245.949 7.46875C246.086 7.26172 246.154 7.01562 246.154 6.73047C246.154 6.41797 246.094 6.16406 245.973 5.96875C245.855 5.76953 245.674 5.625 245.428 5.53516C245.186 5.44141 244.877 5.39453 244.502 5.39453H242.838V13H241.707V4.46875H244.502C244.939 4.46875 245.33 4.51367 245.674 4.60352C246.018 4.68945 246.309 4.82617 246.547 5.01367C246.789 5.19727 246.973 5.43164 247.098 5.7168C247.223 6.00195 247.285 6.34375 247.285 6.74219C247.285 7.09375 247.195 7.41211 247.016 7.69727C246.836 7.97852 246.586 8.20898 246.266 8.38867C245.949 8.56836 245.578 8.68359 245.152 8.73438L244.748 9.00977ZM244.695 13H242.141L242.779 12.0801H244.695C245.055 12.0801 245.359 12.0176 245.609 11.8926C245.863 11.7676 246.057 11.5918 246.189 11.3652C246.322 11.1348 246.389 10.8633 246.389 10.5508C246.389 10.2344 246.332 9.96094 246.219 9.73047C246.105 9.5 245.928 9.32227 245.686 9.19727C245.443 9.07227 245.131 9.00977 244.748 9.00977H243.137L243.148 8.10156H245.352L245.592 8.42969C246.002 8.46484 246.35 8.58203 246.635 8.78125C246.92 8.97656 247.137 9.22656 247.285 9.53125C247.438 9.83594 247.514 10.1719 247.514 10.5391C247.514 11.0703 247.396 11.5195 247.162 11.8867C246.932 12.25 246.605 12.5273 246.184 12.7188C245.762 12.9062 245.266 13 244.695 13ZM249.184 4.46875H252.008C252.648 4.46875 253.189 4.56641 253.631 4.76172C254.076 4.95703 254.414 5.24609 254.645 5.62891C254.879 6.00781 254.996 6.47461 254.996 7.0293C254.996 7.41992 254.916 7.77734 254.756 8.10156C254.6 8.42188 254.373 8.69531 254.076 8.92188C253.783 9.14453 253.432 9.31055 253.021 9.41992L252.705 9.54297H250.051L250.039 8.62305H252.043C252.449 8.62305 252.787 8.55273 253.057 8.41211C253.326 8.26758 253.529 8.07422 253.666 7.83203C253.803 7.58984 253.871 7.32227 253.871 7.0293C253.871 6.70117 253.807 6.41406 253.678 6.16797C253.549 5.92188 253.346 5.73242 253.068 5.59961C252.795 5.46289 252.441 5.39453 252.008 5.39453H250.314V13H249.184V4.46875ZM254.17 13L252.096 9.13281L253.273 9.12695L255.377 12.9297V13H254.17Z" fill="#A7A7A7"/>
<path d="M148.684 4.42188V13H147.6V5.77539L145.414 6.57227V5.59375L148.514 4.42188H148.684ZM157.385 4.46875V5.07812L153.852 13H152.709L156.236 5.35938H151.619V4.46875H157.385ZM165.037 5.22461L162.213 13H161.059L164.311 4.46875H165.055L165.037 5.22461ZM167.404 13L164.574 5.22461L164.557 4.46875H165.301L168.564 13H167.404ZM167.258 9.8418V10.7676H162.465V9.8418H167.258ZM172.748 9.00977H170.586L170.574 8.10156H172.537C172.861 8.10156 173.145 8.04688 173.387 7.9375C173.629 7.82812 173.816 7.67188 173.949 7.46875C174.086 7.26172 174.154 7.01562 174.154 6.73047C174.154 6.41797 174.094 6.16406 173.973 5.96875C173.855 5.76953 173.674 5.625 173.428 5.53516C173.186 5.44141 172.877 5.39453 172.502 5.39453H170.838V13H169.707V4.46875H172.502C172.939 4.46875 173.33 4.51367 173.674 4.60352C174.018 4.68945 174.309 4.82617 174.547 5.01367C174.789 5.19727 174.973 5.43164 175.098 5.7168C175.223 6.00195 175.285 6.34375 175.285 6.74219C175.285 7.09375 175.195 7.41211 175.016 7.69727C174.836 7.97852 174.586 8.20898 174.266 8.38867C173.949 8.56836 173.578 8.68359 173.152 8.73438L172.748 9.00977ZM172.695 13H170.141L170.779 12.0801H172.695C173.055 12.0801 173.359 12.0176 173.609 11.8926C173.863 11.7676 174.057 11.5918 174.189 11.3652C174.322 11.1348 174.389 10.8633 174.389 10.5508C174.389 10.2344 174.332 9.96094 174.219 9.73047C174.105 9.5 173.928 9.32227 173.686 9.19727C173.443 9.07227 173.131 9.00977 172.748 9.00977H171.137L171.148 8.10156H173.352L173.592 8.42969C174.002 8.46484 174.35 8.58203 174.635 8.78125C174.92 8.97656 175.137 9.22656 175.285 9.53125C175.438 9.83594 175.514 10.1719 175.514 10.5391C175.514 11.0703 175.396 11.5195 175.162 11.8867C174.932 12.25 174.605 12.5273 174.184 12.7188C173.762 12.9062 173.266 13 172.695 13ZM177.184 4.46875H180.008C180.648 4.46875 181.189 4.56641 181.631 4.76172C182.076 4.95703 182.414 5.24609 182.645 5.62891C182.879 6.00781 182.996 6.47461 182.996 7.0293C182.996 7.41992 182.916 7.77734 182.756 8.10156C182.6 8.42188 182.373 8.69531 182.076 8.92188C181.783 9.14453 181.432 9.31055 181.021 9.41992L180.705 9.54297H178.051L178.039 8.62305H180.043C180.449 8.62305 180.787 8.55273 181.057 8.41211C181.326 8.26758 181.529 8.07422 181.666 7.83203C181.803 7.58984 181.871 7.32227 181.871 7.0293C181.871 6.70117 181.807 6.41406 181.678 6.16797C181.549 5.92188 181.346 5.73242 181.068 5.59961C180.795 5.46289 180.441 5.39453 180.008 5.39453H178.314V13H177.184V4.46875ZM182.17 13L180.096 9.13281L181.273 9.12695L183.377 12.9297V13H182.17Z" fill="#A7A7A7"/>
<path d="M76.6836 4.42188V13H75.5996V5.77539L73.4141 6.57227V5.59375L76.5137 4.42188H76.6836ZM85.3848 4.46875V5.07812L81.8516 13H80.709L84.2363 5.35938H79.6191V4.46875H85.3848ZM93.0371 5.22461L90.2129 13H89.0586L92.3105 4.46875H93.0547L93.0371 5.22461ZM95.4043 13L92.5742 5.22461L92.5566 4.46875H93.3008L96.5645 13H95.4043ZM95.2578 9.8418V10.7676H90.4648V9.8418H95.2578ZM100.748 9.00977H98.5859L98.5742 8.10156H100.537C100.861 8.10156 101.145 8.04688 101.387 7.9375C101.629 7.82812 101.816 7.67188 101.949 7.46875C102.086 7.26172 102.154 7.01562 102.154 6.73047C102.154 6.41797 102.094 6.16406 101.973 5.96875C101.855 5.76953 101.674 5.625 101.428 5.53516C101.186 5.44141 100.877 5.39453 100.502 5.39453H98.8379V13H97.707V4.46875H100.502C100.939 4.46875 101.33 4.51367 101.674 4.60352C102.018 4.68945 102.309 4.82617 102.547 5.01367C102.789 5.19727 102.973 5.43164 103.098 5.7168C103.223 6.00195 103.285 6.34375 103.285 6.74219C103.285 7.09375 103.195 7.41211 103.016 7.69727C102.836 7.97852 102.586 8.20898 102.266 8.38867C101.949 8.56836 101.578 8.68359 101.152 8.73438L100.748 9.00977ZM100.695 13H98.1406L98.7793 12.0801H100.695C101.055 12.0801 101.359 12.0176 101.609 11.8926C101.863 11.7676 102.057 11.5918 102.189 11.3652C102.322 11.1348 102.389 10.8633 102.389 10.5508C102.389 10.2344 102.332 9.96094 102.219 9.73047C102.105 9.5 101.928 9.32227 101.686 9.19727C101.443 9.07227 101.131 9.00977 100.748 9.00977H99.1367L99.1484 8.10156H101.352L101.592 8.42969C102.002 8.46484 102.35 8.58203 102.635 8.78125C102.92 8.97656 103.137 9.22656 103.285 9.53125C103.438 9.83594 103.514 10.1719 103.514 10.5391C103.514 11.0703 103.396 11.5195 103.162 11.8867C102.932 12.25 102.605 12.5273 102.184 12.7188C101.762 12.9062 101.266 13 100.695 13ZM105.184 4.46875H108.008C108.648 4.46875 109.189 4.56641 109.631 4.76172C110.076 4.95703 110.414 5.24609 110.645 5.62891C110.879 6.00781 110.996 6.47461 110.996 7.0293C110.996 7.41992 110.916 7.77734 110.756 8.10156C110.6 8.42188 110.373 8.69531 110.076 8.92188C109.783 9.14453 109.432 9.31055 109.021 9.41992L108.705 9.54297H106.051L106.039 8.62305H108.043C108.449 8.62305 108.787 8.55273 109.057 8.41211C109.326 8.26758 109.529 8.07422 109.666 7.83203C109.803 7.58984 109.871 7.32227 109.871 7.0293C109.871 6.70117 109.807 6.41406 109.678 6.16797C109.549 5.92188 109.346 5.73242 109.068 5.59961C108.795 5.46289 108.441 5.39453 108.008 5.39453H106.314V13H105.184V4.46875ZM110.17 13L108.096 9.13281L109.273 9.12695L111.377 12.9297V13H110.17Z" fill="#A7A7A7"/>
<path d="M4.68359 4.42188V13H3.59961V5.77539L1.41406 6.57227V5.59375L4.51367 4.42188H4.68359ZM13.2266 8.05469V9.35547C13.2266 10.0547 13.1641 10.6445 13.0391 11.125C12.9141 11.6055 12.7344 11.9922 12.5 12.2852C12.2656 12.5781 11.9824 12.791 11.6504 12.9238C11.3223 13.0527 10.9512 13.1172 10.5371 13.1172C10.209 13.1172 9.90625 13.0762 9.62891 12.9941C9.35156 12.9121 9.10156 12.7812 8.87891 12.6016C8.66016 12.418 8.47266 12.1797 8.31641 11.8867C8.16016 11.5938 8.04102 11.2383 7.95898 10.8203C7.87695 10.4023 7.83594 9.91406 7.83594 9.35547V8.05469C7.83594 7.35547 7.89844 6.76953 8.02344 6.29688C8.15234 5.82422 8.33398 5.44531 8.56836 5.16016C8.80273 4.87109 9.08398 4.66406 9.41211 4.53906C9.74414 4.41406 10.1152 4.35156 10.5254 4.35156C10.8574 4.35156 11.1621 4.39258 11.4395 4.47461C11.7207 4.55273 11.9707 4.67969 12.1895 4.85547C12.4082 5.02734 12.5938 5.25781 12.7461 5.54688C12.9023 5.83203 13.0215 6.18164 13.1035 6.5957C13.1855 7.00977 13.2266 7.49609 13.2266 8.05469ZM12.1367 9.53125V7.87305C12.1367 7.49023 12.1133 7.1543 12.0664 6.86523C12.0234 6.57227 11.959 6.32227 11.873 6.11523C11.7871 5.9082 11.6777 5.74023 11.5449 5.61133C11.416 5.48242 11.2656 5.38867 11.0938 5.33008C10.9258 5.26758 10.7363 5.23633 10.5254 5.23633C10.2676 5.23633 10.0391 5.28516 9.83984 5.38281C9.64062 5.47656 9.47266 5.62695 9.33594 5.83398C9.20312 6.04102 9.10156 6.3125 9.03125 6.64844C8.96094 6.98438 8.92578 7.39258 8.92578 7.87305V9.53125C8.92578 9.91406 8.94727 10.252 8.99023 10.5449C9.03711 10.8379 9.10547 11.0918 9.19531 11.3066C9.28516 11.5176 9.39453 11.6914 9.52344 11.8281C9.65234 11.9648 9.80078 12.0664 9.96875 12.1328C10.1406 12.1953 10.3301 12.2266 10.5371 12.2266C10.8027 12.2266 11.0352 12.1758 11.2344 12.0742C11.4336 11.9727 11.5996 11.8145 11.7324 11.5996C11.8691 11.3809 11.9707 11.1016 12.0371 10.7617C12.1035 10.418 12.1367 10.0078 12.1367 9.53125ZM21.0371 5.22461L18.2129 13H17.0586L20.3105 4.46875H21.0547L21.0371 5.22461ZM23.4043 13L20.5742 5.22461L20.5566 4.46875H21.3008L24.5645 13H23.4043ZM23.2578 9.8418V10.7676H18.4648V9.8418H23.2578ZM28.748 9.00977H26.5859L26.5742 8.10156H28.5371C28.8613 8.10156 29.1445 8.04688 29.3867 7.9375C29.6289 7.82812 29.8164 7.67188 29.9492 7.46875C30.0859 7.26172 30.1543 7.01562 30.1543 6.73047C30.1543 6.41797 30.0938 6.16406 29.9727 5.96875C29.8555 5.76953 29.6738 5.625 29.4277 5.53516C29.1855 5.44141 28.877 5.39453 28.502 5.39453H26.8379V13H25.707V4.46875H28.502C28.9395 4.46875 29.3301 4.51367 29.6738 4.60352C30.0176 4.68945 30.3086 4.82617 30.5469 5.01367C30.7891 5.19727 30.9727 5.43164 31.0977 5.7168C31.2227 6.00195 31.2852 6.34375 31.2852 6.74219C31.2852 7.09375 31.1953 7.41211 31.0156 7.69727C30.8359 7.97852 30.5859 8.20898 30.2656 8.38867C29.9492 8.56836 29.5781 8.68359 29.1523 8.73438L28.748 9.00977ZM28.6953 13H26.1406L26.7793 12.0801H28.6953C29.0547 12.0801 29.3594 12.0176 29.6094 11.8926C29.8633 11.7676 30.0566 11.5918 30.1895 11.3652C30.3223 11.1348 30.3887 10.8633 30.3887 10.5508C30.3887 10.2344 30.332 9.96094 30.2188 9.73047C30.1055 9.5 29.9277 9.32227 29.6855 9.19727C29.4434 9.07227 29.1309 9.00977 28.748 9.00977H27.1367L27.1484 8.10156H29.3516L29.5918 8.42969C30.002 8.46484 30.3496 8.58203 30.6348 8.78125C30.9199 8.97656 31.1367 9.22656 31.2852 9.53125C31.4375 9.83594 31.5137 10.1719 31.5137 10.5391C31.5137 11.0703 31.3965 11.5195 31.1621 11.8867C30.9316 12.25 30.6055 12.5273 30.1836 12.7188C29.7617 12.9062 29.2656 13 28.6953 13ZM33.1836 4.46875H36.0078C36.6484 4.46875 37.1895 4.56641 37.6309 4.76172C38.0762 4.95703 38.4141 5.24609 38.6445 5.62891C38.8789 6.00781 38.9961 6.47461 38.9961 7.0293C38.9961 7.41992 38.916 7.77734 38.7559 8.10156C38.5996 8.42188 38.373 8.69531 38.0762 8.92188C37.7832 9.14453 37.4316 9.31055 37.0215 9.41992L36.7051 9.54297H34.0508L34.0391 8.62305H36.043C36.4492 8.62305 36.7871 8.55273 37.0566 8.41211C37.3262 8.26758 37.5293 8.07422 37.666 7.83203C37.8027 7.58984 37.8711 7.32227 37.8711 7.0293C37.8711 6.70117 37.8066 6.41406 37.6777 6.16797C37.5488 5.92188 37.3457 5.73242 37.0684 5.59961C36.7949 5.46289 36.4414 5.39453 36.0078 5.39453H34.3145V13H33.1836V4.46875ZM38.1699 13L36.0957 9.13281L37.2734 9.12695L39.377 12.9297V13H38.1699Z" fill="#A7A7A7"/>
</svg>
