<svg width="381" height="24" viewBox="0 0 381 24" fill="none" xmlns="http://www.w3.org/2000/svg">
<path d="M1.5 2L1.5 21.9995" stroke="#15BE62" stroke-width="3" stroke-linecap="round"/>
<path d="M8.5 2L8.5 21.9995" stroke="#15BE62" stroke-width="3" stroke-linecap="round"/>
<path d="M15.5 2L15.5 21.9995" stroke="#15BE62" stroke-width="3" stroke-linecap="round"/>
<path d="M22.5 2L22.5 21.9995" stroke="#15BE62" stroke-width="3" stroke-linecap="round"/>
<path d="M29.5 2L29.5 21.9995" stroke="#15BE62" stroke-width="3" stroke-linecap="round"/>
<path d="M36.5 2L36.5 21.9995" stroke="#15BE62" stroke-width="3" stroke-linecap="round"/>
<path d="M43.5 2L43.5 21.9995" stroke="#15BE62" stroke-width="3" stroke-linecap="round"/>
<path d="M50.5 2L50.5 21.9995" stroke="#15BE62" stroke-width="3" stroke-linecap="round"/>
<path d="M57.5 2L57.5 21.9995" stroke="#15BE62" stroke-width="3" stroke-linecap="round"/>
<path d="M64.5 2L64.5 21.9995" stroke="#15BE62" stroke-width="3" stroke-linecap="round"/>
<path d="M71.5 2L71.5 21.9995" stroke="#15BE62" stroke-width="3" stroke-linecap="round"/>
<path d="M78.5 2L78.5 21.9995" stroke="#15BE62" stroke-width="3" stroke-linecap="round"/>
<path d="M85.5 2L85.5 21.9995" stroke="#15BE62" stroke-width="3" stroke-linecap="round"/>
<path d="M92.5 2L92.5 21.9995" stroke="#15BE62" stroke-width="3" stroke-linecap="round"/>
<path d="M99.5 2L99.5 21.9995" stroke="#15BE62" stroke-width="3" stroke-linecap="round"/>
<path d="M106.5 2L106.5 21.9995" stroke="#15BE62" stroke-width="3" stroke-linecap="round"/>
<path d="M113.5 16.667L113.5 21.667" stroke="#BF0905" stroke-width="3" stroke-linecap="round"/>
<path d="M120.5 16.667L120.5 21.667" stroke="#BF0905" stroke-width="3" stroke-linecap="round"/>
<path d="M127.5 16.667L127.5 21.667" stroke="#BF0905" stroke-width="3" stroke-linecap="round"/>
<path d="M134.5 2L134.5 21.9995" stroke="#15BE62" stroke-width="3" stroke-linecap="round"/>
<path d="M141.5 2L141.5 21.9995" stroke="#15BE62" stroke-width="3" stroke-linecap="round"/>
<path d="M148.5 2L148.5 21.9995" stroke="#15BE62" stroke-width="3" stroke-linecap="round"/>
<path d="M155.5 2L155.5 21.9995" stroke="#15BE62" stroke-width="3" stroke-linecap="round"/>
<path d="M162.5 2L162.5 21.9995" stroke="#15BE62" stroke-width="3" stroke-linecap="round"/>
<path d="M169.5 2L169.5 21.9995" stroke="#15BE62" stroke-width="3" stroke-linecap="round"/>
<path d="M176.5 2L176.5 21.9995" stroke="#15BE62" stroke-width="3" stroke-linecap="round"/>
<path d="M183.5 2L183.5 21.9995" stroke="#15BE62" stroke-width="3" stroke-linecap="round"/>
<path d="M190.5 2L190.5 21.9995" stroke="#15BE62" stroke-width="3" stroke-linecap="round"/>
<path d="M197.5 2L197.5 21.9995" stroke="#15BE62" stroke-width="3" stroke-linecap="round"/>
<path d="M204.5 2L204.5 21.9995" stroke="#15BE62" stroke-width="3" stroke-linecap="round"/>
<path d="M211.5 2L211.5 21.9995" stroke="#15BE62" stroke-width="3" stroke-linecap="round"/>
<path d="M218.5 2L218.5 21.9995" stroke="#15BE62" stroke-width="3" stroke-linecap="round"/>
<path d="M225.5 2L225.5 21.9995" stroke="#15BE62" stroke-width="3" stroke-linecap="round"/>
<path d="M232.5 2L232.5 21.9995" stroke="#15BE62" stroke-width="3" stroke-linecap="round"/>
<path d="M239.5 2L239.5 21.9995" stroke="#15BE62" stroke-width="3" stroke-linecap="round"/>
<path d="M246.5 2L246.5 21.9995" stroke="#15BE62" stroke-width="3" stroke-linecap="round"/>
<path d="M253.5 2L253.5 21.9995" stroke="#15BE62" stroke-width="3" stroke-linecap="round"/>
<path d="M260.5 2L260.5 21.9995" stroke="#15BE62" stroke-width="3" stroke-linecap="round"/>
<path d="M267.5 2L267.5 21.9995" stroke="#15BE62" stroke-width="3" stroke-linecap="round"/>
<path d="M274.5 2L274.5 21.9995" stroke="#15BE62" stroke-width="3" stroke-linecap="round"/>
<path d="M281.5 2L281.5 21.9995" stroke="#15BE62" stroke-width="3" stroke-linecap="round"/>
<path d="M288.5 2L288.5 21.9995" stroke="#15BE62" stroke-width="3" stroke-linecap="round"/>
<path d="M295.5 2L295.5 21.9995" stroke="#15BE62" stroke-width="3" stroke-linecap="round"/>
<path d="M302.5 2L302.5 21.9995" stroke="#15BE62" stroke-width="3" stroke-linecap="round"/>
<path d="M309.5 2L309.5 21.9995" stroke="#15BE62" stroke-width="3" stroke-linecap="round"/>
<path d="M316.5 2L316.5 21.9995" stroke="#15BE62" stroke-width="3" stroke-linecap="round"/>
<path d="M323.5 2L323.5 21.9995" stroke="#15BE62" stroke-width="3" stroke-linecap="round"/>
<path d="M330.5 2L330.5 21.9995" stroke="#15BE62" stroke-width="3" stroke-linecap="round"/>
<path d="M337.5 2L337.5 21.9995" stroke="#15BE62" stroke-width="3" stroke-linecap="round"/>
<path d="M344.5 2L344.5 21.9995" stroke="#15BE62" stroke-width="3" stroke-linecap="round"/>
<path d="M351.5 2L351.5 21.9995" stroke="#15BE62" stroke-width="3" stroke-linecap="round"/>
<path d="M358.5 2L358.5 21.9995" stroke="#15BE62" stroke-width="3" stroke-linecap="round"/>
<path d="M365.5 2L365.5 21.9995" stroke="#15BE62" stroke-width="3" stroke-linecap="round"/>
<path d="M372.5 11.9998L372.5 21.9995" stroke="#F9A000" stroke-width="3" stroke-linecap="round"/>
<path d="M379.5 11.9998L379.5 21.9995" stroke="#F9A000" stroke-width="3" stroke-linecap="round"/>
</svg>
